<svg id="svg" version="1.1" xmlns="http://www.w3.org/2000/svg" xmlns:xlink="http://www.w3.org/1999/xlink" width="400" height="401.3245033112583" viewBox="0, 0, 400,401.3245033112583"><g id="svgg"><path id="path0" d="M152.160 9.906 C 151.322 10.465,150.644 12.210,150.363 14.526 C 150.019 17.360,150.288 17.101,146.736 18.024 C 141.499 19.384,140.145 19.001,138.315 15.644 C 136.797 12.860,133.200 14.216,133.200 17.572 C 133.200 19.558,130.457 20.876,125.200 21.419 C 121.678 21.782,119.600 23.139,119.600 25.075 C 119.600 27.477,122.944 28.162,129.671 27.138 C 133.425 26.567,134.516 27.060,135.212 29.643 C 136.657 35.011,142.061 34.484,141.916 28.990 C 141.797 24.469,149.264 22.580,150.411 26.841 C 151.349 30.323,152.280 31.147,154.616 30.560 C 155.765 30.272,157.200 27.849,157.200 26.198 C 157.200 23.880,165.443 21.420,167.973 22.983 C 168.642 23.397,171.152 22.437,171.603 21.594 C 173.526 18.001,170.855 16.206,164.003 16.488 C 158.893 16.698,157.766 16.469,157.240 15.112 C 155.848 11.517,155.383 10.540,154.851 10.100 C 154.184 9.547,152.842 9.451,152.160 9.906 M103.411 35.040 C 91.008 39.007,93.356 60.278,106.186 60.178 C 112.047 60.132,117.194 55.917,119.199 49.522 C 122.260 39.757,113.574 31.789,103.411 35.040 M147.200 39.430 C 141.225 40.393,135.025 41.636,134.200 42.037 C 133.760 42.251,131.691 43.007,129.603 43.718 C 124.439 45.475,124.440 45.474,125.377 53.338 C 125.767 56.611,126.427 60.917,126.843 62.906 C 127.259 64.894,127.600 67.119,127.600 67.850 C 127.600 70.514,129.421 73.425,131.703 74.406 C 133.886 75.345,134.554 75.348,141.600 74.445 C 143.470 74.205,146.440 73.847,148.200 73.649 C 149.960 73.452,154.049 72.881,157.287 72.381 L 163.174 71.473 164.708 72.536 C 168.620 75.247,170.736 73.327,171.843 66.062 C 172.156 64.007,172.605 61.965,172.840 61.525 C 173.095 61.049,173.295 57.549,173.334 52.863 L 173.400 45.000 172.200 43.340 C 169.334 39.374,158.275 37.644,147.200 39.430 M111.541 41.947 C 113.511 43.706,113.797 45.297,112.609 47.893 C 109.922 53.763,104.848 55.136,102.816 50.544 C 100.077 44.350,106.806 37.720,111.541 41.947 M193.338 41.599 C 192.826 41.805,192.363 42.458,192.199 43.204 C 190.429 51.264,205.683 54.841,217.800 49.207 C 222.181 47.170,227.607 46.793,228.633 48.454 C 230.620 51.668,235.752 51.631,236.009 48.400 C 236.136 46.809,236.057 46.578,235.000 45.438 C 234.450 44.844,234.000 44.210,234.000 44.028 C 234.000 43.846,233.456 43.472,232.791 43.196 C 232.125 42.921,231.418 42.404,231.219 42.048 C 230.669 41.065,218.435 41.084,217.342 42.069 C 214.331 44.785,201.944 46.608,199.874 44.640 C 199.613 44.392,198.905 43.873,198.300 43.486 C 197.695 43.098,197.200 42.537,197.200 42.237 C 197.200 41.318,194.953 40.947,193.338 41.599 M165.200 46.517 C 166.545 47.196,167.365 49.692,166.929 51.780 L 166.600 53.359 159.676 53.365 C 154.032 53.369,152.684 53.262,152.382 52.785 C 151.838 51.924,151.913 47.047,152.480 46.480 C 153.159 45.801,163.845 45.833,165.200 46.517 M144.451 47.461 C 145.028 48.157,145.248 53.686,144.719 54.215 C 144.564 54.369,142.854 54.824,140.919 55.225 C 138.983 55.627,136.812 56.164,136.093 56.419 C 133.421 57.368,132.576 56.636,132.149 53.005 C 131.832 50.304,133.063 49.348,138.800 47.838 C 143.362 46.638,143.746 46.612,144.451 47.461 M165.226 60.414 C 168.059 61.930,165.133 64.880,160.343 65.338 C 152.745 66.063,152.418 65.973,152.406 63.149 C 152.396 60.654,152.380 60.658,163.126 60.072 C 163.856 60.033,164.801 60.186,165.226 60.414 M145.120 62.480 C 147.314 64.674,145.002 67.283,140.276 67.944 C 135.476 68.615,133.280 67.240,134.755 64.485 C 135.713 62.694,143.775 61.135,145.120 62.480 M158.600 127.551 C 153.671 128.485,146.623 134.667,144.900 139.568 C 144.778 139.916,144.459 140.470,144.190 140.800 C 143.921 141.130,143.474 142.120,143.196 143.000 C 142.918 143.880,142.368 145.320,141.974 146.200 C 138.398 154.186,138.426 166.711,142.038 174.216 C 142.677 175.545,143.200 176.813,143.200 177.034 C 143.200 177.256,143.468 177.789,143.796 178.219 C 144.124 178.648,145.050 179.979,145.855 181.176 C 147.082 183.001,149.548 185.603,152.676 188.373 C 168.788 202.643,187.727 189.385,187.777 163.800 C 187.792 156.377,187.229 152.117,186.036 150.629 C 185.847 150.393,185.558 149.570,185.393 148.800 C 185.228 148.030,184.757 146.773,184.347 146.006 C 183.936 145.239,183.600 144.428,183.600 144.203 C 183.600 143.378,179.343 136.775,177.400 134.586 C 172.293 128.833,165.417 126.260,158.600 127.551 M246.364 139.216 C 234.475 141.685,225.600 157.771,225.600 176.848 C 225.600 192.840,234.221 203.200,247.528 203.200 C 271.925 203.200,285.666 160.806,266.944 143.298 C 262.900 139.517,253.699 137.692,246.364 139.216 M100.180 183.568 C 99.971 183.770,98.760 184.125,97.489 184.356 C 91.052 185.528,84.588 193.516,82.726 202.600 C 81.619 208.003,83.379 221.222,85.603 224.200 C 85.768 224.420,86.035 225.050,86.198 225.600 C 87.788 230.978,95.362 237.916,101.073 239.227 C 122.479 244.139,132.262 214.938,117.065 191.497 C 113.380 185.814,102.931 180.906,100.180 183.568 M311.000 199.976 C 302.699 201.550,296.300 206.137,291.156 214.200 C 288.432 218.470,288.000 219.216,288.000 219.648 C 288.000 219.903,287.653 220.852,287.229 221.756 C 280.885 235.273,284.281 251.644,294.628 257.431 C 303.067 262.150,313.015 259.445,320.843 250.303 C 322.210 248.707,323.457 247.310,323.613 247.200 C 324.032 246.905,327.643 240.146,328.743 237.600 C 332.348 229.248,332.844 216.154,329.776 210.300 C 329.459 209.695,328.901 208.615,328.535 207.900 C 326.186 203.305,319.075 198.758,315.000 199.246 C 314.780 199.272,312.980 199.601,311.000 199.976 M196.800 216.326 C 195.278 216.750,191.797 218.660,189.058 220.573 C 187.706 221.518,185.880 222.768,185.000 223.352 C 184.120 223.937,183.067 224.636,182.660 224.907 C 178.406 227.741,172.101 233.172,167.200 238.223 C 161.307 244.297,148.821 256.788,144.833 260.600 C 141.166 264.105,133.985 272.525,131.701 276.000 C 130.906 277.210,129.657 278.939,128.927 279.841 C 128.197 280.744,127.600 281.598,127.600 281.740 C 127.600 281.882,126.700 283.619,125.600 285.600 C 124.500 287.581,123.600 289.429,123.600 289.707 C 123.600 289.985,123.227 290.908,122.771 291.758 C 121.873 293.435,120.468 298.990,120.130 302.200 C 119.836 304.998,121.435 314.482,122.638 317.075 C 123.167 318.217,123.600 319.457,123.600 319.831 C 123.600 321.026,127.790 326.922,130.269 329.216 C 133.840 332.521,141.608 337.200,143.523 337.200 C 143.729 337.200,144.686 337.541,145.649 337.958 C 154.763 341.906,171.221 339.620,185.240 332.459 C 189.051 330.512,189.765 330.104,193.169 327.930 C 195.665 326.335,200.380 326.968,200.397 328.900 C 200.399 329.065,200.648 329.200,200.951 329.200 C 201.254 329.200,201.711 329.452,201.967 329.760 C 203.132 331.164,212.892 336.423,215.489 337.046 C 216.100 337.192,217.072 337.550,217.649 337.840 C 222.655 340.359,241.861 340.354,246.736 337.833 C 247.410 337.485,248.145 337.200,248.371 337.200 C 249.317 337.200,254.409 334.433,257.124 332.444 C 263.165 328.017,266.166 322.281,269.076 309.600 C 269.786 306.509,269.544 298.027,268.637 294.200 C 267.416 289.046,267.166 288.146,266.523 286.600 C 262.896 277.872,260.869 274.278,257.494 270.585 C 256.562 269.565,255.296 267.987,254.681 267.077 C 254.066 266.168,252.896 264.686,252.081 263.786 C 251.266 262.885,249.882 261.260,249.005 260.174 C 248.128 259.088,244.708 255.492,241.405 252.183 C 235.021 245.785,227.428 237.527,226.709 236.200 C 224.799 232.670,214.987 221.835,211.600 219.515 C 207.216 216.512,206.509 216.264,202.000 216.152 C 199.690 216.094,197.350 216.172,196.800 216.326 " stroke="none" fill="#fcacbc" fill-rule="evenodd"></path><path id="path1" d="M147.300 6.963 C 146.805 7.485,146.400 8.197,146.400 8.544 C 146.400 8.940,146.177 9.089,145.800 8.945 C 145.320 8.760,145.200 9.085,145.200 10.570 C 145.200 11.873,145.016 12.496,144.583 12.662 C 143.738 12.986,143.472 12.624,143.512 11.206 C 143.543 10.109,143.431 10.000,142.268 10.000 C 141.330 10.000,140.885 9.762,140.595 9.107 C 139.553 6.752,133.250 6.595,133.206 8.924 C 133.203 9.102,133.378 9.137,133.595 9.003 C 133.822 8.863,133.889 9.023,133.753 9.379 C 133.470 10.115,130.020 10.260,129.325 9.565 C 129.034 9.274,128.807 9.265,128.639 9.538 C 128.500 9.761,128.570 10.058,128.793 10.196 C 129.422 10.584,129.295 12.800,128.644 12.800 C 128.339 12.800,128.097 13.025,128.107 13.300 C 128.174 15.102,128.053 15.200,125.747 15.200 C 123.699 15.200,123.377 15.325,122.198 16.575 C 121.170 17.664,120.539 17.975,119.151 18.075 C 117.639 18.183,117.394 18.327,117.353 19.127 C 117.328 19.636,117.113 20.247,116.876 20.484 C 116.568 20.792,116.509 20.670,116.669 20.058 C 116.799 19.559,116.706 19.200,116.447 19.200 C 116.201 19.200,116.000 19.830,116.000 20.600 C 116.000 21.877,115.899 22.000,114.843 22.000 C 113.536 22.000,113.200 22.559,113.201 24.733 L 113.201 26.200 107.201 26.080 C 102.186 25.980,101.200 26.055,101.200 26.537 C 101.200 27.200,99.750 27.660,98.450 27.410 C 97.385 27.205,95.834 28.591,96.164 29.452 C 96.289 29.776,96.225 29.939,96.023 29.814 C 95.821 29.689,95.547 29.762,95.415 29.976 C 95.283 30.190,94.912 30.264,94.591 30.141 C 94.264 30.016,93.898 30.200,93.761 30.558 C 93.625 30.911,93.329 31.200,93.103 31.200 C 92.365 31.200,90.800 33.219,90.800 34.172 C 90.800 34.683,90.495 35.349,90.123 35.651 C 89.663 36.024,89.543 36.040,89.747 35.700 C 89.912 35.425,89.857 35.200,89.624 35.200 C 89.391 35.200,89.200 35.571,89.200 36.024 C 89.200 36.477,89.028 36.741,88.817 36.611 C 88.607 36.481,88.531 36.065,88.648 35.687 C 88.827 35.107,88.787 35.114,88.391 35.735 C 88.132 36.140,87.992 37.085,88.080 37.835 C 88.209 38.942,88.103 39.200,87.520 39.200 C 86.511 39.200,86.394 58.269,87.400 58.655 C 87.730 58.782,88.003 59.361,88.006 59.943 C 88.011 60.701,88.111 60.844,88.361 60.449 C 88.726 59.873,89.600 60.154,89.600 60.847 C 89.600 61.067,89.432 61.144,89.228 61.017 C 89.023 60.891,88.727 60.994,88.571 61.247 C 88.372 61.569,88.659 61.653,89.528 61.525 C 90.817 61.336,91.371 61.890,90.960 62.960 C 90.842 63.267,90.936 63.637,91.168 63.780 C 91.425 63.939,91.498 63.799,91.353 63.421 C 91.200 63.024,91.338 62.800,91.734 62.800 C 92.349 62.800,92.363 63.426,91.790 65.232 C 91.510 66.115,91.584 66.138,92.967 65.613 C 93.853 65.276,94.162 65.406,95.333 66.613 C 96.683 68.003,97.995 68.438,98.006 67.500 C 98.010 67.145,98.097 67.130,98.306 67.450 C 98.804 68.213,113.200 68.164,113.200 67.399 C 113.200 67.070,113.470 66.800,113.800 66.800 C 114.130 66.800,114.400 66.530,114.400 66.200 C 114.400 65.832,114.774 65.600,115.367 65.600 C 115.899 65.600,116.628 65.487,116.988 65.349 C 117.521 65.145,117.594 65.286,117.384 66.121 C 117.051 67.450,117.464 68.699,118.405 69.202 C 119.046 69.546,119.130 69.477,118.987 68.731 C 118.878 68.169,118.956 67.996,119.206 68.246 C 119.701 68.741,120.387 72.368,120.118 73.069 C 120.001 73.375,120.187 73.600,120.557 73.600 C 120.976 73.600,121.200 73.948,121.200 74.600 C 121.200 75.945,122.701 77.475,123.340 76.781 C 123.688 76.404,123.685 76.347,123.328 76.548 C 123.068 76.694,122.732 76.613,122.580 76.368 C 122.407 76.088,122.582 75.976,123.053 76.066 C 123.494 76.150,123.855 76.616,123.935 77.204 C 124.161 78.871,125.531 80.000,127.326 80.000 C 128.374 80.000,129.085 80.237,129.423 80.699 C 129.968 81.444,131.041 81.549,138.500 81.582 C 141.692 81.597,142.400 81.709,142.400 82.200 C 142.400 82.745,139.860 83.061,136.821 82.894 C 136.503 82.877,136.053 83.102,135.821 83.394 C 135.571 83.709,134.290 83.990,132.673 84.083 C 130.867 84.188,129.821 84.437,129.579 84.821 C 129.056 85.647,129.115 86.098,129.700 85.747 C 130.040 85.543,130.024 85.663,129.651 86.123 C 129.332 86.517,128.537 86.800,127.751 86.800 C 126.958 86.800,126.441 86.986,126.500 87.250 C 126.555 87.497,126.350 87.791,126.044 87.902 C 125.722 88.019,125.599 87.926,125.751 87.680 C 125.895 87.446,125.826 87.139,125.597 86.998 C 125.368 86.856,125.230 86.971,125.290 87.253 C 125.360 87.580,124.773 87.855,123.666 88.014 C 121.900 88.267,121.217 88.847,121.206 90.100 C 121.202 90.628,120.867 90.800,119.847 90.800 C 118.810 90.800,118.442 90.996,118.275 91.636 C 118.109 92.269,117.855 92.408,117.228 92.209 C 115.926 91.796,114.693 92.347,114.926 93.239 C 115.036 93.658,114.977 93.909,114.795 93.797 C 114.613 93.685,114.193 93.864,113.861 94.196 C 113.529 94.528,112.974 94.800,112.629 94.800 C 112.283 94.800,112.000 95.048,112.000 95.350 C 112.000 95.653,111.456 96.009,110.792 96.142 C 109.847 96.331,109.531 96.647,109.342 97.592 C 109.140 98.600,108.910 98.800,107.950 98.800 C 107.194 98.800,106.800 99.006,106.800 99.400 C 106.800 99.730,106.648 100.000,106.462 100.000 C 105.904 100.000,104.000 101.789,104.000 102.313 C 104.000 102.581,103.730 102.800,103.400 102.800 C 103.070 102.800,102.800 103.070,102.800 103.400 C 102.800 103.730,102.530 104.000,102.200 104.000 C 101.479 104.000,100.005 105.399,99.988 106.100 C 99.960 107.214,98.197 109.426,97.458 109.276 C 96.467 109.075,95.732 109.812,96.594 110.142 C 97.035 110.312,97.152 110.233,96.962 109.895 C 96.743 109.507,96.795 109.504,97.205 109.884 C 97.766 110.404,96.357 111.959,95.300 111.987 C 95.025 111.994,94.800 112.270,94.800 112.600 C 94.800 112.930,94.530 113.200,94.200 113.200 C 93.870 113.200,93.603 113.515,93.606 113.900 C 93.611 114.498,93.669 114.513,94.000 114.000 C 94.337 113.479,94.389 113.487,94.394 114.057 C 94.397 114.419,94.119 114.822,93.775 114.954 C 93.431 115.086,93.251 115.359,93.375 115.560 C 93.500 115.761,93.211 115.823,92.733 115.698 C 92.038 115.517,91.917 115.607,92.126 116.151 C 92.305 116.619,92.130 116.926,91.564 117.135 C 91.111 117.303,90.754 117.566,90.770 117.720 C 90.970 119.610,90.772 120.000,89.608 120.000 C 88.393 120.000,87.655 121.220,88.107 122.483 C 88.335 123.121,87.672 124.492,87.258 124.236 C 87.092 124.133,86.940 124.785,86.920 125.685 C 86.897 126.742,86.657 127.448,86.242 127.681 C 85.889 127.878,85.600 128.401,85.600 128.843 C 85.600 129.286,85.420 129.536,85.200 129.400 C 84.980 129.264,84.797 129.388,84.794 129.676 C 84.789 130.057,84.682 130.036,84.400 129.600 C 84.122 129.170,84.011 129.581,84.006 131.057 C 84.002 132.537,83.827 133.181,83.384 133.351 C 83.041 133.482,82.802 133.989,82.846 134.494 C 82.889 134.992,82.896 136.345,82.862 137.500 L 82.800 139.600 80.500 139.605 C 77.647 139.612,76.400 139.929,76.400 140.647 C 76.400 141.049,75.816 141.200,74.262 141.200 C 72.134 141.200,70.800 141.944,70.800 143.131 C 70.800 143.422,70.100 143.600,68.963 143.600 C 67.462 143.600,67.087 143.746,66.916 144.400 C 66.770 144.959,66.370 145.200,65.589 145.200 C 64.838 145.200,64.140 145.594,63.461 146.400 C 62.906 147.060,62.260 147.600,62.026 147.600 C 61.792 147.600,61.600 147.870,61.600 148.200 C 61.600 148.533,61.244 148.800,60.800 148.800 C 60.360 148.800,59.640 149.160,59.200 149.600 C 58.760 150.040,58.220 150.400,58.000 150.400 C 57.780 150.400,57.600 150.670,57.600 151.000 C 57.600 151.330,57.268 151.600,56.861 151.600 C 56.455 151.600,55.707 151.960,55.200 152.400 C 54.693 152.840,54.125 153.200,53.939 153.200 C 53.752 153.200,53.600 153.740,53.600 154.400 C 53.600 155.060,53.409 155.600,53.176 155.600 C 52.943 155.600,52.851 155.760,52.972 155.955 C 53.273 156.441,52.147 157.319,51.513 157.092 C 50.624 156.774,49.600 157.589,49.600 158.614 C 49.600 159.583,49.295 159.763,47.900 159.621 C 47.325 159.562,47.200 159.876,47.200 161.375 C 47.200 162.393,47.013 163.200,46.776 163.200 C 46.543 163.200,46.478 162.997,46.632 162.748 C 46.801 162.474,46.693 162.368,46.356 162.479 C 46.050 162.580,45.738 163.092,45.661 163.616 C 45.585 164.140,45.262 164.759,44.943 164.992 C 44.625 165.225,44.335 165.797,44.300 166.264 C 44.261 166.779,44.033 167.034,43.718 166.913 C 43.379 166.783,43.200 167.060,43.200 167.714 C 43.200 168.264,42.930 168.818,42.600 168.945 C 42.270 169.071,42.000 169.355,42.000 169.575 C 42.000 169.795,42.270 169.871,42.600 169.745 C 42.930 169.618,43.200 169.714,43.200 169.957 C 43.200 170.201,42.820 170.400,42.355 170.400 C 41.640 170.400,41.537 170.588,41.688 171.621 C 41.823 172.541,41.674 172.946,41.086 173.261 C 40.524 173.562,40.380 173.556,40.575 173.240 C 40.729 172.990,40.572 172.800,40.211 172.800 C 39.357 172.800,38.942 173.991,39.642 174.434 C 40.105 174.728,40.107 174.789,39.653 174.794 C 39.295 174.798,39.183 175.091,39.327 175.644 C 39.485 176.245,39.335 176.544,38.808 176.682 C 37.984 176.898,37.580 178.051,37.762 179.669 C 37.849 180.436,37.674 180.792,37.142 180.931 C 36.373 181.132,36.095 182.000,36.800 182.000 C 37.020 182.000,37.200 181.809,37.200 181.576 C 37.200 181.343,37.380 181.264,37.600 181.400 C 38.293 181.828,38.035 182.290,37.100 182.297 C 35.286 182.310,35.256 182.348,35.298 184.613 C 35.333 186.467,35.197 186.927,34.461 187.442 C 33.720 187.961,33.593 188.400,33.653 190.234 C 33.731 192.639,33.566 192.970,32.279 192.988 C 31.577 192.998,31.374 193.270,31.272 194.341 C 31.201 195.079,31.306 195.582,31.505 195.459 C 31.704 195.336,31.867 195.489,31.867 195.800 C 31.867 196.111,31.702 196.263,31.501 196.139 C 31.300 196.014,31.170 196.247,31.214 196.656 C 31.451 198.905,31.171 200.800,30.600 200.800 C 30.133 200.800,30.000 201.336,30.000 203.227 C 30.000 205.481,29.901 205.747,28.603 206.971 L 27.206 208.289 27.233 219.328 C 27.261 231.046,27.488 232.400,29.429 232.400 C 29.957 232.400,30.300 236.220,30.015 238.933 C 29.973 239.337,30.219 239.877,30.561 240.133 C 30.982 240.449,31.207 241.351,31.254 242.919 C 31.306 244.631,31.460 245.186,31.842 245.039 C 32.458 244.803,32.922 246.017,32.568 246.940 C 32.413 247.343,32.562 247.687,32.958 247.839 C 33.395 248.007,33.600 248.583,33.600 249.643 C 33.600 250.705,33.875 251.475,34.463 252.063 C 35.079 252.679,35.309 253.366,35.266 254.463 C 35.223 255.567,35.374 256.014,35.803 256.050 C 36.131 256.078,36.625 256.123,36.900 256.150 C 37.178 256.178,37.455 256.871,37.525 257.708 C 37.606 258.688,37.805 259.121,38.093 258.943 C 38.385 258.762,38.443 258.911,38.263 259.379 C 38.061 259.907,38.146 260.029,38.595 259.857 C 39.180 259.633,39.373 260.024,39.223 261.130 C 39.136 261.773,39.937 262.800,40.525 262.800 C 40.761 262.800,40.621 262.557,40.216 262.261 C 39.675 261.866,39.609 261.642,39.966 261.421 C 40.536 261.069,41.568 262.265,41.587 263.300 C 41.595 263.729,41.910 264.000,42.400 264.000 C 43.024 264.000,43.200 264.267,43.200 265.213 C 43.200 266.000,43.446 266.518,43.900 266.690 C 44.285 266.836,44.838 267.190,45.129 267.478 C 45.419 267.765,46.004 268.000,46.429 268.000 C 46.853 268.000,47.203 268.225,47.207 268.500 C 47.217 269.209,49.100 270.909,49.561 270.624 C 49.772 270.494,50.075 270.598,50.234 270.855 C 50.415 271.148,50.350 271.216,50.062 271.038 C 49.786 270.868,49.600 271.011,49.600 271.394 C 49.600 271.783,49.876 271.989,50.300 271.918 C 50.815 271.831,51.036 272.117,51.135 273.000 C 51.209 273.660,51.524 274.344,51.835 274.520 C 52.497 274.894,52.589 275.600,51.976 275.600 C 51.743 275.600,51.664 275.420,51.800 275.200 C 51.936 274.980,51.857 274.800,51.624 274.800 C 50.808 274.800,51.209 275.946,52.069 276.072 C 52.546 276.142,53.010 276.470,53.099 276.800 C 53.243 277.333,53.209 277.333,52.798 276.800 C 52.439 276.335,52.386 276.785,52.563 278.800 C 52.752 280.949,52.974 281.560,53.846 282.324 C 54.703 283.075,54.894 283.580,54.865 285.024 C 54.832 286.673,55.061 287.011,56.100 286.847 C 56.265 286.821,56.400 288.617,56.400 290.838 C 56.400 295.136,57.130 297.417,58.399 297.084 C 58.907 296.951,58.984 297.492,58.899 300.563 C 58.813 303.673,58.914 304.357,59.599 305.284 C 60.225 306.131,60.400 306.994,60.400 309.238 C 60.400 311.826,60.504 312.205,61.455 313.086 C 62.413 313.974,62.491 313.990,62.300 313.262 C 62.157 312.714,62.255 312.523,62.608 312.659 C 62.989 312.805,63.091 313.714,62.992 316.094 C 62.867 319.102,62.924 319.383,63.805 320.075 C 64.622 320.718,64.730 321.091,64.593 322.789 C 64.446 324.601,64.536 324.844,65.717 325.843 C 66.423 326.440,66.948 327.100,66.885 327.309 C 66.822 327.519,67.092 327.954,67.485 328.278 C 68.164 328.836,68.164 328.854,67.491 328.642 C 66.891 328.453,66.847 328.540,67.205 329.209 C 67.438 329.644,67.790 330.000,67.988 330.000 C 68.185 330.000,68.404 330.475,68.473 331.055 C 68.543 331.635,69.042 332.400,69.583 332.755 C 70.160 333.133,70.439 333.194,70.259 332.900 C 70.089 332.622,70.141 332.400,70.376 332.400 C 70.609 332.400,70.800 333.120,70.800 334.000 C 70.800 335.303,70.940 335.600,71.557 335.600 C 72.421 335.600,72.878 336.471,72.555 337.500 C 72.372 338.082,72.447 338.065,72.998 337.400 L 73.662 336.600 73.531 337.400 C 73.439 337.960,73.610 338.183,74.100 338.144 C 74.485 338.114,74.814 338.204,74.831 338.344 C 74.847 338.485,74.920 338.907,74.993 339.283 C 75.065 339.658,74.873 340.173,74.566 340.428 C 74.260 340.682,74.107 341.050,74.228 341.245 C 74.635 341.903,75.217 341.606,75.691 340.500 L 76.163 339.400 76.303 340.648 C 76.416 341.657,76.689 341.969,77.721 342.272 C 78.810 342.592,78.982 342.812,78.880 343.755 C 78.778 344.696,78.898 344.851,79.680 344.787 C 81.292 344.655,81.638 344.784,81.518 345.473 C 81.449 345.869,81.730 346.240,82.200 346.373 C 82.726 346.522,83.000 346.942,83.000 347.600 C 83.000 348.429,83.215 348.621,84.259 348.722 C 85.107 348.805,85.585 349.099,85.722 349.622 C 85.854 350.128,86.271 350.400,86.913 350.400 C 87.690 350.400,87.951 350.656,88.140 351.600 C 88.343 352.616,88.566 352.800,89.590 352.800 C 90.399 352.800,90.800 352.999,90.800 353.400 C 90.800 353.730,90.935 353.979,91.100 353.953 C 92.361 353.754,93.600 354.081,93.600 354.613 C 93.600 354.949,93.870 355.329,94.200 355.455 C 94.530 355.582,94.800 355.936,94.800 356.243 C 94.800 356.591,95.235 356.800,95.957 356.800 C 96.617 356.800,97.213 357.058,97.345 357.400 C 97.479 357.751,98.079 358.000,98.787 358.000 C 99.528 358.000,100.000 358.207,100.000 358.530 C 100.000 359.398,101.705 360.692,103.100 360.883 C 103.815 360.981,104.400 360.918,104.400 360.743 C 104.400 360.568,104.670 360.529,105.000 360.655 C 105.330 360.782,105.600 361.136,105.600 361.443 C 105.600 361.749,105.735 361.979,105.900 361.953 C 107.163 361.753,108.000 362.080,108.000 362.771 C 108.000 364.106,109.105 364.800,111.229 364.800 C 112.739 364.800,113.200 364.944,113.200 365.418 C 113.200 365.757,113.425 366.006,113.700 365.970 C 115.339 365.757,117.200 366.055,117.200 366.530 C 117.200 367.092,118.832 368.800,119.369 368.800 C 119.543 368.800,119.586 368.539,119.463 368.220 C 119.315 367.834,119.433 367.715,119.818 367.862 C 120.136 367.984,120.286 368.261,120.153 368.476 C 120.009 368.708,120.461 368.838,121.255 368.794 C 121.995 368.753,122.780 368.758,123.000 368.807 C 123.220 368.855,123.548 368.869,123.730 368.837 C 123.911 368.806,123.940 368.973,123.794 369.210 C 123.609 369.510,123.356 369.496,122.955 369.163 C 122.488 368.775,122.430 368.812,122.640 369.360 C 122.782 369.731,123.191 370.005,123.549 369.971 C 126.590 369.677,128.000 370.006,128.000 371.010 C 128.000 372.084,129.528 372.996,130.768 372.663 C 131.287 372.523,131.275 372.484,130.700 372.446 C 130.315 372.421,130.003 372.085,130.006 371.700 C 130.010 371.305,130.140 371.174,130.306 371.400 C 130.468 371.620,130.870 371.800,131.200 371.800 C 131.530 371.800,131.748 372.046,131.684 372.348 C 131.600 372.747,131.903 372.846,132.805 372.714 C 133.720 372.580,134.145 372.724,134.435 373.266 C 134.766 373.884,135.333 374.000,138.014 374.000 C 141.125 374.000,141.200 374.023,141.200 374.976 C 141.200 376.470,145.659 377.444,147.192 376.286 C 147.526 376.033,147.680 375.971,147.533 376.147 C 146.576 377.296,148.612 378.000,152.889 378.000 C 156.234 378.000,157.200 378.121,157.200 378.538 C 157.200 380.071,158.559 380.451,164.863 380.680 C 169.357 380.844,171.176 381.057,171.659 381.476 C 172.030 381.800,172.988 382.015,173.859 381.970 C 177.305 381.795,178.196 381.968,178.605 382.894 C 179.246 384.347,181.251 384.439,209.540 384.316 C 237.696 384.193,238.782 384.119,238.797 382.300 C 238.799 382.135,239.520 382.000,240.400 382.000 C 241.410 382.000,242.002 381.816,242.006 381.500 C 242.011 381.122,242.086 381.116,242.314 381.475 C 242.674 382.041,244.668 381.892,245.308 381.252 C 245.557 381.003,246.534 380.800,247.480 380.800 C 248.771 380.800,249.200 380.645,249.200 380.176 C 249.200 379.833,249.383 379.666,249.607 379.804 C 249.830 379.942,249.893 380.249,249.746 380.487 C 249.558 380.792,250.642 380.833,253.440 380.629 C 257.404 380.339,258.800 379.794,258.800 378.538 C 258.800 378.066,264.736 377.661,267.105 377.971 C 267.383 378.008,267.718 377.759,267.848 377.419 C 267.979 377.078,268.516 376.800,269.043 376.800 C 269.569 376.800,270.003 376.575,270.006 376.300 C 270.011 375.933,270.104 375.944,270.357 376.344 C 271.009 377.372,274.026 376.516,274.539 375.156 C 274.963 374.033,276.509 373.631,279.105 373.971 C 279.383 374.008,279.718 373.759,279.848 373.419 C 280.002 373.019,280.601 372.798,281.543 372.794 C 283.231 372.787,284.094 372.349,283.983 371.557 C 283.791 370.182,284.026 370.000,286.000 370.000 C 287.100 370.000,288.000 369.826,288.000 369.613 C 288.000 369.399,287.685 369.324,287.300 369.445 C 286.702 369.633,286.713 369.573,287.376 369.033 C 287.804 368.685,288.374 368.400,288.643 368.400 C 288.913 368.400,289.224 368.175,289.335 367.900 C 289.452 367.611,289.550 367.707,289.568 368.127 C 289.593 368.693,289.799 368.792,290.500 368.573 C 291.619 368.224,292.060 367.609,291.843 366.700 C 291.705 366.124,291.952 366.000,293.237 366.000 C 294.360 366.000,294.800 365.831,294.800 365.400 C 294.800 364.959,295.259 364.800,296.530 364.800 C 298.565 364.800,300.719 363.099,299.590 362.385 C 299.172 362.121,299.507 362.010,300.737 362.006 C 302.100 362.001,302.517 361.837,302.672 361.246 C 302.806 360.733,303.115 360.557,303.643 360.695 C 304.405 360.895,306.400 359.219,306.400 358.379 C 306.400 358.171,306.779 358.000,307.243 358.000 C 307.828 358.000,308.015 357.816,307.855 357.400 C 307.716 357.036,307.854 356.800,308.208 356.800 C 309.067 356.800,310.400 355.530,310.400 354.711 C 310.400 354.267,310.700 354.000,311.200 354.000 C 311.798 354.000,312.008 353.723,312.032 352.900 C 312.049 352.295,312.154 352.025,312.265 352.300 C 312.376 352.575,312.642 352.800,312.857 352.800 C 313.072 352.800,313.128 352.608,312.983 352.373 C 312.837 352.136,313.108 351.845,313.592 351.718 C 314.170 351.567,314.404 351.259,314.285 350.805 C 314.187 350.428,314.438 349.688,314.844 349.160 C 315.250 348.632,315.586 348.389,315.591 348.620 C 315.596 348.851,315.384 349.256,315.120 349.520 C 314.846 349.794,314.814 350.000,315.045 350.000 C 315.580 350.000,317.200 347.789,317.200 347.059 C 317.200 346.744,317.470 346.382,317.800 346.255 C 318.130 346.129,318.400 345.749,318.400 345.413 C 318.400 345.076,318.632 344.800,318.917 344.800 C 319.465 344.800,320.860 342.134,320.445 341.880 C 320.310 341.798,320.425 341.786,320.699 341.853 C 321.256 341.988,322.646 340.112,322.268 339.735 C 321.900 339.367,322.788 337.946,323.220 338.212 C 323.429 338.342,323.600 338.150,323.600 337.786 C 323.600 337.423,323.960 337.031,324.400 336.916 C 324.840 336.801,325.200 336.458,325.200 336.153 C 325.200 335.849,325.470 335.600,325.800 335.600 C 326.340 335.600,326.567 334.508,326.516 332.153 C 326.511 331.908,326.798 331.728,327.153 331.753 C 327.647 331.789,327.793 331.445,327.771 330.304 C 327.754 329.481,327.823 328.890,327.923 328.990 C 328.272 329.339,329.600 328.367,329.600 327.762 C 329.600 327.427,329.787 327.268,330.015 327.409 C 330.283 327.575,330.372 327.123,330.269 326.133 C 330.081 324.331,330.291 323.600,330.998 323.600 C 331.280 323.600,331.503 323.375,331.493 323.100 C 331.363 319.620,331.623 318.399,332.500 318.368 C 332.995 318.351,333.181 318.248,332.914 318.140 C 332.540 317.988,332.536 317.771,332.898 317.192 C 333.246 316.635,333.501 316.552,333.884 316.869 C 334.267 317.188,334.400 317.140,334.400 316.682 C 334.400 316.344,334.175 315.976,333.900 315.865 C 333.500 315.704,333.500 315.657,333.900 315.632 C 334.221 315.611,334.400 314.956,334.400 313.800 C 334.400 312.810,334.574 312.000,334.787 312.000 C 335.001 312.000,335.060 311.700,334.919 311.334 C 334.748 310.887,334.817 310.764,335.132 310.958 C 335.517 311.196,335.882 307.535,335.670 305.567 C 335.656 305.438,335.887 305.333,336.184 305.333 C 336.481 305.333,336.632 305.573,336.519 305.867 C 336.195 306.710,337.522 306.493,337.986 305.626 C 338.214 305.201,338.400 304.031,338.400 303.026 C 338.400 301.670,338.554 301.200,339.000 301.200 C 339.472 301.200,339.600 300.644,339.600 298.600 C 339.600 296.299,339.689 296.000,340.371 296.000 C 341.841 296.000,342.487 294.853,342.312 292.558 C 342.217 291.325,342.304 290.541,342.520 290.674 C 343.010 290.977,343.586 290.024,343.594 288.900 C 343.597 288.405,343.800 288.000,344.044 288.000 C 344.658 288.000,346.385 286.310,346.393 285.700 C 346.397 285.425,346.670 285.200,347.000 285.200 C 347.330 285.200,347.600 284.953,347.600 284.650 C 347.600 284.348,348.124 283.995,348.764 283.867 C 349.657 283.689,349.991 283.350,350.196 282.417 C 350.343 281.748,350.719 281.200,351.032 281.200 C 351.344 281.200,351.600 280.846,351.600 280.413 C 351.600 279.848,351.785 279.696,352.255 279.876 C 352.703 280.049,352.850 279.951,352.722 279.567 C 352.620 279.259,352.910 278.814,353.368 278.580 C 353.825 278.345,354.174 277.843,354.142 277.463 C 354.099 276.948,354.301 276.827,354.942 276.989 C 355.760 277.194,355.758 277.183,354.900 276.741 C 354.057 276.307,353.637 275.543,354.300 275.647 C 355.223 275.793,355.662 275.538,355.447 274.979 C 355.316 274.638,355.358 274.450,355.539 274.563 C 356.142 274.935,357.714 273.554,357.234 273.074 C 356.995 272.835,356.800 272.496,356.800 272.320 C 356.800 271.838,358.576 271.936,359.085 272.445 C 359.758 273.118,360.563 272.479,359.959 271.751 C 359.088 270.701,359.285 268.347,360.276 267.971 C 361.328 267.571,362.000 266.424,362.000 265.026 C 362.000 264.267,362.208 264.000,362.800 264.000 C 363.493 264.000,363.600 263.733,363.600 262.000 C 363.600 260.489,363.747 260.000,364.200 260.000 C 364.569 260.000,364.800 259.625,364.800 259.024 C 364.800 258.487,364.989 257.931,365.219 257.788 C 365.506 257.611,365.491 257.350,365.170 256.964 C 364.812 256.533,364.813 256.400,365.175 256.400 C 365.435 256.400,365.522 256.197,365.368 255.948 C 365.201 255.679,365.303 255.568,365.619 255.673 C 366.672 256.024,367.398 254.669,367.454 252.252 C 367.483 250.961,367.714 249.777,367.967 249.620 C 368.220 249.464,368.319 249.054,368.186 248.708 C 368.054 248.363,368.138 247.962,368.373 247.817 C 368.608 247.672,368.800 246.548,368.800 245.320 C 368.800 243.760,368.988 242.951,369.424 242.632 C 369.811 242.349,370.057 241.533,370.071 240.482 C 370.095 238.736,370.651 237.912,371.204 238.806 C 371.542 239.354,371.683 211.864,371.348 210.700 C 371.237 210.315,370.888 210.000,370.573 210.000 C 370.203 210.000,370.000 209.575,370.000 208.800 C 370.000 208.000,369.800 207.600,369.400 207.600 C 368.933 207.600,368.800 207.065,368.800 205.186 C 368.800 203.699,368.566 202.415,368.192 201.843 C 367.828 201.288,367.551 199.834,367.504 198.225 C 367.441 196.107,367.272 195.453,366.712 195.153 C 366.320 194.943,366.000 194.890,366.000 195.035 C 366.000 195.180,365.730 195.074,365.400 194.800 C 365.062 194.519,364.800 193.647,364.800 192.800 C 364.800 191.953,364.538 191.081,364.200 190.800 C 363.855 190.514,363.600 189.641,363.600 188.747 C 363.600 187.687,363.345 186.974,362.800 186.507 C 362.360 186.130,362.000 185.524,362.000 185.160 C 362.000 184.375,361.048 183.485,360.642 183.891 C 360.486 184.048,360.486 183.840,360.644 183.430 C 360.834 182.936,360.699 182.515,360.243 182.182 C 359.865 181.906,359.528 181.302,359.493 180.840 C 359.458 180.378,359.284 180.000,359.106 180.000 C 358.928 180.000,358.578 179.550,358.327 179.000 C 358.077 178.450,357.713 178.000,357.519 178.000 C 356.019 178.000,355.102 175.399,355.813 173.160 C 356.043 172.435,355.958 172.359,355.192 172.603 C 353.953 172.996,352.443 172.122,352.695 171.158 C 352.829 170.645,352.685 170.400,352.247 170.400 C 351.856 170.400,351.600 170.067,351.600 169.557 C 351.600 168.972,351.416 168.785,351.000 168.945 C 350.585 169.104,350.400 168.918,350.400 168.345 C 350.400 167.779,350.213 167.586,349.813 167.740 C 349.159 167.990,348.835 167.621,348.590 166.347 C 348.384 165.276,347.946 164.846,347.716 165.488 C 347.447 166.240,345.902 164.616,345.846 163.524 C 345.812 162.836,345.501 162.554,344.600 162.391 C 343.748 162.237,343.434 161.975,343.518 161.487 C 343.587 161.079,343.379 160.800,343.005 160.800 C 342.658 160.800,342.271 160.530,342.145 160.200 C 342.013 159.858,341.417 159.600,340.757 159.600 C 339.748 159.600,339.600 159.452,339.600 158.447 C 339.600 157.224,338.891 156.817,336.743 156.805 C 336.146 156.802,335.578 156.521,335.439 156.158 C 335.299 155.792,334.937 155.615,334.597 155.746 C 334.268 155.872,333.999 155.756,333.997 155.487 C 333.996 155.219,333.456 154.693,332.797 154.319 C 331.764 153.731,331.600 153.405,331.600 151.950 C 331.600 150.940,331.334 149.969,330.936 149.530 C 330.426 148.966,330.278 148.035,330.297 145.502 C 330.322 142.085,329.803 140.377,328.520 139.659 C 328.019 139.379,327.865 138.836,327.937 137.610 C 328.060 135.535,327.719 134.400,326.973 134.400 C 326.550 134.400,326.400 133.864,326.400 132.357 C 326.400 130.706,326.285 130.359,325.800 130.545 C 325.392 130.701,325.200 130.523,325.200 129.987 C 325.200 129.492,324.929 129.200,324.469 129.200 C 323.882 129.200,323.774 128.960,323.918 127.975 C 324.064 126.983,323.937 126.709,323.249 126.529 C 322.654 126.373,322.400 125.991,322.400 125.252 C 322.400 124.014,320.063 120.600,319.216 120.600 C 318.875 120.600,318.518 120.040,318.356 119.248 C 318.062 117.808,317.330 117.087,316.479 117.400 C 316.193 117.505,316.068 117.413,316.203 117.195 C 316.337 116.978,316.246 116.800,316.000 116.800 C 315.754 116.800,315.664 116.620,315.800 116.400 C 315.936 116.180,315.677 116.000,315.224 116.000 C 314.427 116.000,314.157 115.233,314.388 113.622 C 314.453 113.167,314.350 113.144,313.906 113.512 C 313.193 114.104,312.352 113.389,312.699 112.486 C 312.855 112.081,312.775 111.968,312.468 112.158 C 312.171 112.342,312.000 112.157,312.000 111.651 C 312.000 111.205,311.647 110.742,311.200 110.600 C 310.760 110.460,310.400 110.088,310.400 109.773 C 310.400 109.458,310.130 109.200,309.800 109.200 C 309.470 109.200,309.197 108.885,309.194 108.500 C 309.189 107.964,309.109 107.925,308.850 108.334 C 308.507 108.874,308.248 108.580,308.027 107.400 C 307.986 107.180,307.603 106.871,307.176 106.713 C 306.749 106.555,306.400 106.150,306.400 105.813 C 306.400 105.476,306.130 105.200,305.800 105.200 C 305.470 105.200,305.200 104.930,305.200 104.600 C 305.200 104.270,304.917 104.000,304.571 104.000 C 304.226 104.000,303.673 103.730,303.343 103.400 C 303.013 103.070,302.396 102.800,301.971 102.800 C 301.467 102.800,301.200 102.523,301.200 102.000 C 301.200 101.556,300.933 101.200,300.600 101.200 C 300.270 101.200,300.000 100.930,300.000 100.600 C 300.000 100.270,299.730 100.000,299.400 100.000 C 299.070 100.000,298.800 99.730,298.800 99.400 C 298.800 99.070,298.665 98.821,298.500 98.847 C 297.675 98.978,297.200 98.741,297.200 98.200 C 297.200 97.862,296.842 97.600,296.382 97.600 C 295.826 97.600,295.602 97.377,295.682 96.900 C 295.775 96.351,295.469 96.173,294.267 96.074 C 293.110 95.979,292.790 95.803,292.961 95.358 C 293.090 95.022,292.974 94.795,292.694 94.831 C 291.294 95.011,290.800 94.755,290.800 93.849 C 290.800 92.587,290.121 92.087,288.195 91.930 C 287.183 91.847,286.637 91.617,286.700 91.300 C 286.764 90.981,286.324 90.800,285.489 90.800 C 284.198 90.800,283.218 90.065,282.696 88.707 C 282.517 88.239,281.971 88.056,280.806 88.072 C 279.902 88.085,278.861 87.829,278.484 87.502 C 278.102 87.171,276.916 86.883,275.800 86.851 C 274.548 86.815,273.634 86.570,273.356 86.197 C 273.112 85.869,272.707 85.600,272.456 85.600 C 272.205 85.600,272.000 85.349,272.000 85.043 C 272.000 84.215,271.084 84.001,267.467 83.987 C 265.273 83.979,263.952 83.787,263.446 83.404 C 262.277 82.519,231.200 82.509,231.200 83.393 C 231.200 84.057,230.981 84.091,227.302 84.004 C 224.383 83.935,223.200 84.230,223.200 85.027 C 223.200 85.342,222.930 85.600,222.600 85.600 C 222.270 85.600,222.000 85.870,222.000 86.200 C 222.000 86.757,220.778 87.031,219.246 86.817 C 218.941 86.775,218.142 87.339,217.470 88.070 C 216.797 88.802,216.366 89.085,216.511 88.700 C 216.692 88.219,216.579 88.000,216.150 88.000 C 215.806 88.000,215.431 88.360,215.316 88.800 C 215.201 89.240,214.858 89.600,214.553 89.600 C 214.249 89.600,214.000 89.870,214.000 90.200 C 214.000 90.530,213.730 90.800,213.400 90.800 C 213.070 90.800,212.800 91.135,212.800 91.545 C 212.800 92.159,212.554 92.263,211.400 92.135 C 210.036 91.985,210.000 92.017,210.000 93.391 C 210.000 94.166,209.835 94.800,209.633 94.800 C 209.431 94.800,208.996 94.904,208.666 95.030 C 208.291 95.174,207.491 94.649,206.533 93.631 C 205.285 92.304,204.729 92.001,203.543 92.001 C 202.617 92.000,202.002 91.781,201.855 91.400 C 201.729 91.070,201.349 90.800,201.013 90.800 C 200.676 90.800,200.400 90.530,200.400 90.200 C 200.400 89.870,200.151 89.600,199.847 89.600 C 199.542 89.600,199.199 89.240,199.084 88.800 C 198.957 88.313,198.538 88.000,198.014 88.000 C 197.540 88.000,197.264 88.180,197.400 88.400 C 197.536 88.620,197.457 88.800,197.224 88.800 C 196.991 88.800,196.800 88.620,196.800 88.400 C 196.800 88.180,196.665 88.021,196.500 88.047 C 195.675 88.178,195.200 87.941,195.200 87.400 C 195.200 87.070,195.009 86.800,194.776 86.800 C 194.543 86.800,194.480 87.025,194.635 87.300 C 194.861 87.700,194.810 87.700,194.379 87.300 C 194.082 87.025,193.246 86.800,192.520 86.800 C 191.384 86.800,191.200 86.663,191.200 85.814 C 191.200 84.271,187.617 83.132,187.065 84.500 C 186.904 84.900,186.857 84.900,186.832 84.500 C 186.814 84.225,186.372 84.000,185.849 84.000 C 185.326 84.000,184.674 83.730,184.400 83.400 C 184.019 82.941,182.974 82.800,179.945 82.800 C 176.026 82.800,175.978 82.788,174.881 81.561 C 174.034 80.612,173.338 80.272,171.911 80.111 L 170.049 79.901 170.900 78.751 C 171.368 78.118,171.987 77.600,172.275 77.600 C 172.564 77.600,172.804 77.285,172.809 76.900 C 172.814 76.507,173.383 75.937,174.109 75.600 C 174.839 75.261,175.451 74.647,175.516 74.188 C 175.580 73.741,176.024 73.201,176.503 72.988 C 177.745 72.435,177.915 71.396,177.960 64.120 C 177.995 58.445,178.085 57.592,178.685 57.257 C 179.866 56.596,180.012 44.201,178.843 43.895 C 178.208 43.729,177.992 43.345,177.967 42.337 C 177.901 39.695,177.709 39.038,176.824 38.424 C 176.330 38.081,175.327 37.215,174.596 36.500 C 173.865 35.785,172.937 35.203,172.533 35.206 C 171.914 35.211,171.893 35.272,172.400 35.600 C 172.730 35.813,172.811 35.991,172.580 35.994 C 172.349 35.997,171.986 35.826,171.773 35.613 C 171.561 35.401,170.817 35.184,170.121 35.131 C 169.425 35.077,168.945 34.888,169.055 34.711 C 169.165 34.533,169.423 34.491,169.628 34.617 C 169.832 34.744,170.000 34.665,170.000 34.442 C 170.000 33.962,168.043 33.590,165.800 33.644 C 162.515 33.722,162.013 33.631,162.255 33.000 C 162.382 32.670,162.744 32.400,163.060 32.400 C 163.376 32.400,163.582 32.119,163.518 31.776 C 163.418 31.246,164.043 31.141,167.667 31.076 C 172.208 30.995,172.498 30.902,172.598 29.500 C 172.671 28.478,174.099 28.053,174.986 28.789 C 175.640 29.331,176.211 28.665,175.743 27.907 C 175.070 26.819,175.339 26.033,176.468 25.785 C 177.738 25.506,178.436 23.873,177.627 23.071 C 177.262 22.709,177.214 22.762,177.419 23.300 C 177.574 23.706,177.499 24.000,177.243 24.000 C 176.999 24.000,176.800 23.640,176.800 23.200 C 176.800 22.756,177.067 22.400,177.400 22.400 C 177.819 22.400,178.000 21.978,178.000 21.000 C 178.000 19.628,177.464 19.112,177.065 20.100 C 176.954 20.375,176.849 19.835,176.832 18.900 C 176.806 17.540,176.940 17.198,177.500 17.188 C 178.036 17.179,177.896 16.900,176.900 15.994 C 176.185 15.343,175.600 14.629,175.600 14.406 C 175.600 14.183,174.970 14.000,174.200 14.000 C 172.923 14.000,172.800 13.899,172.800 12.843 C 172.800 11.310,172.397 11.200,166.767 11.200 L 162.000 11.200 162.000 10.187 C 162.000 9.025,160.913 8.412,160.322 9.242 C 160.000 9.694,159.963 9.677,160.128 9.156 C 160.252 8.764,159.810 8.020,159.000 7.256 L 157.669 6.000 152.934 6.007 C 148.476 6.013,148.148 6.069,147.300 6.963 M155.400 8.764 C 156.345 8.972,156.628 9.272,156.732 10.175 C 156.805 10.806,157.120 11.577,157.432 11.890 C 157.745 12.202,158.000 12.794,158.000 13.205 C 158.000 14.389,158.577 14.515,164.690 14.663 C 170.231 14.797,172.000 15.135,172.000 16.057 C 172.000 16.292,172.450 16.839,173.000 17.271 C 174.127 18.158,174.382 20.361,173.463 21.280 C 173.168 21.575,172.703 22.233,172.431 22.742 C 171.633 24.233,169.824 24.697,164.659 24.735 C 159.543 24.773,158.809 25.025,158.786 26.749 C 158.778 27.327,158.553 28.175,158.286 28.633 C 155.361 33.650,151.516 33.499,149.003 28.271 C 147.351 24.832,143.200 26.283,143.200 30.299 C 143.200 32.207,143.057 32.576,141.909 33.625 C 139.100 36.190,136.765 35.414,134.217 31.066 C 132.866 28.759,132.285 28.417,130.447 28.845 C 126.543 29.752,119.200 28.901,119.200 27.541 C 119.200 27.371,118.869 26.909,118.464 26.516 C 117.290 25.374,117.128 24.466,118.015 23.992 C 118.447 23.761,118.800 23.231,118.800 22.814 C 118.800 21.543,119.917 20.800,121.829 20.800 C 123.118 20.800,123.600 20.640,123.600 20.214 C 123.600 19.252,124.983 18.800,127.925 18.800 C 131.088 18.800,131.415 18.570,132.383 15.666 C 133.067 13.613,134.168 12.815,136.331 12.806 C 137.658 12.800,137.873 12.969,140.845 16.355 C 141.634 17.254,141.861 17.295,144.709 17.055 C 148.317 16.750,147.931 17.065,148.599 13.874 C 149.345 10.309,150.174 8.800,151.387 8.800 C 151.918 8.800,152.472 8.608,152.617 8.373 C 152.762 8.138,153.178 8.070,153.540 8.222 C 153.903 8.374,154.740 8.618,155.400 8.764 M165.508 30.075 C 165.421 30.336,165.091 30.620,164.775 30.705 C 164.289 30.837,164.286 30.801,164.758 30.471 C 165.213 30.153,165.176 30.045,164.558 29.887 C 163.936 29.728,163.967 29.684,164.733 29.646 C 165.291 29.619,165.603 29.791,165.508 30.075 M149.191 32.638 L 150.582 33.996 149.715 34.863 C 147.178 37.399,142.982 35.966,144.077 32.938 C 144.980 30.441,146.829 30.333,149.191 32.638 M112.600 33.503 C 113.040 33.755,114.039 34.243,114.819 34.588 C 120.333 37.022,123.195 45.128,120.420 50.451 C 119.969 51.317,119.600 52.273,119.600 52.576 C 119.600 54.792,113.145 60.203,108.857 61.582 L 106.028 62.491 103.066 61.411 C 87.776 55.835,92.010 32.333,108.200 32.916 C 110.180 32.987,112.160 33.251,112.600 33.503 M125.796 34.800 C 127.772 34.800,128.799 34.636,128.935 34.300 C 129.056 34.001,129.150 34.082,129.168 34.500 C 129.186 34.885,128.924 35.200,128.587 35.200 C 128.249 35.200,127.343 35.830,126.573 36.600 C 125.148 38.025,124.511 38.402,125.053 37.500 C 125.252 37.169,125.121 37.188,124.667 37.557 C 124.290 37.863,123.940 38.043,123.890 37.957 C 122.759 35.990,122.408 35.112,122.446 34.338 C 122.480 33.660,122.544 33.594,122.676 34.100 C 122.829 34.687,123.335 34.800,125.796 34.800 M191.600 36.761 C 191.600 37.204,189.359 38.025,189.034 37.701 C 188.905 37.572,188.800 37.857,188.800 38.333 C 188.800 38.837,188.549 39.200,188.200 39.200 C 187.870 39.200,187.600 39.449,187.600 39.753 C 187.600 40.058,187.260 40.396,186.843 40.505 C 185.889 40.754,185.564 49.077,186.487 49.662 C 186.886 49.916,186.889 49.989,186.500 49.994 C 186.225 49.997,186.000 50.191,186.000 50.424 C 186.000 50.657,186.178 50.737,186.395 50.603 C 186.618 50.465,186.692 50.617,186.564 50.949 C 186.341 51.531,187.402 52.381,188.200 52.261 C 188.420 52.227,188.658 52.803,188.728 53.539 C 188.832 54.618,189.001 54.841,189.598 54.685 C 190.132 54.545,190.276 54.658,190.112 55.086 C 189.840 55.793,190.649 56.385,191.900 56.394 C 192.431 56.397,192.800 56.646,192.800 57.000 C 192.800 57.419,193.222 57.600,194.200 57.600 C 195.178 57.600,195.600 57.781,195.600 58.200 C 195.600 58.573,195.978 58.800,196.600 58.800 C 197.150 58.800,197.600 58.991,197.600 59.224 C 197.600 59.457,197.420 59.536,197.200 59.400 C 196.980 59.264,196.800 59.343,196.800 59.576 C 196.800 59.809,197.070 60.000,197.400 60.000 C 197.730 60.000,198.000 59.805,198.000 59.567 C 198.000 59.328,198.225 59.216,198.500 59.317 C 198.775 59.418,198.955 59.703,198.900 59.950 C 198.843 60.206,199.319 60.400,200.000 60.400 C 200.667 60.400,201.200 60.187,201.200 59.920 C 201.200 59.547,201.307 59.547,201.680 59.920 C 202.322 60.562,204.798 60.546,204.806 59.900 C 204.810 59.544,204.914 59.561,205.167 59.960 C 205.812 60.978,209.956 60.199,211.415 58.785 C 212.418 57.813,212.976 57.600,214.519 57.600 C 215.839 57.600,216.400 57.438,216.400 57.056 C 216.400 56.587,220.079 55.862,221.800 55.992 C 224.631 56.205,226.000 56.552,226.000 57.056 C 226.000 57.844,234.752 57.790,235.055 57.000 C 235.163 56.719,235.780 56.384,236.426 56.255 C 237.414 56.057,237.600 55.829,237.600 54.810 C 237.600 53.651,237.909 53.408,239.157 53.583 C 240.657 53.793,241.063 43.698,239.570 43.308 C 239.147 43.197,238.800 42.858,238.800 42.553 C 238.800 42.249,238.530 42.000,238.200 42.000 C 237.803 42.000,237.600 41.603,237.600 40.824 C 237.600 39.617,236.776 38.672,236.485 39.546 C 236.383 39.850,235.937 39.617,235.296 38.926 C 234.401 37.959,233.911 37.799,231.442 37.659 C 229.625 37.556,228.467 37.297,228.202 36.935 C 227.583 36.089,219.383 36.337,219.439 37.200 C 219.471 37.675,219.069 37.771,217.516 37.660 C 214.876 37.471,212.800 37.893,212.800 38.618 C 212.800 39.071,212.187 39.200,210.029 39.200 C 208.046 39.200,207.079 39.378,206.630 39.827 C 205.776 40.681,203.601 40.703,203.131 39.862 C 202.875 39.405,202.224 39.200,201.027 39.200 C 199.630 39.200,199.253 39.045,199.084 38.400 C 198.934 37.825,198.538 37.600,197.680 37.600 C 196.987 37.600,196.389 37.348,196.255 37.000 C 195.999 36.332,191.600 36.106,191.600 36.761 M164.854 37.995 C 169.923 39.197,173.258 41.409,173.864 43.972 C 173.998 44.537,174.322 45.270,174.585 45.600 C 176.198 47.628,176.338 51.364,175.000 56.640 C 174.450 58.808,174.000 61.537,174.000 62.704 C 174.000 63.871,173.731 65.470,173.401 66.258 C 173.072 67.046,172.626 68.787,172.410 70.127 C 171.720 74.414,168.003 76.031,163.907 73.828 C 162.633 73.144,162.231 73.109,160.336 73.523 C 159.161 73.779,156.130 74.176,153.600 74.404 C 151.070 74.633,147.290 75.079,145.200 75.396 C 135.286 76.900,133.026 76.861,130.000 75.133 C 128.524 74.290,126.805 72.006,126.793 70.872 C 126.789 70.503,126.431 68.850,125.996 67.200 C 125.561 65.550,124.930 62.040,124.593 59.400 C 124.257 56.760,123.810 53.880,123.600 53.000 C 122.347 47.738,123.808 43.697,127.288 42.796 C 128.230 42.553,129.540 42.163,130.200 41.931 C 131.529 41.462,133.707 40.751,137.546 39.530 C 138.946 39.085,142.006 38.558,144.346 38.359 C 146.686 38.160,149.050 37.825,149.600 37.615 C 152.139 36.644,159.983 36.839,164.854 37.995 M227.600 38.585 C 227.600 38.938,228.274 39.341,229.300 39.603 C 231.904 40.268,233.121 40.818,233.359 41.437 C 233.478 41.746,233.833 42.000,234.147 42.000 C 236.948 42.000,239.002 49.398,236.810 51.590 C 234.923 53.477,231.929 53.140,229.055 50.716 C 226.132 48.252,223.711 48.300,217.000 50.959 C 210.254 53.631,200.790 54.321,197.205 52.403 C 193.200 50.259,190.422 47.024,190.408 44.484 C 190.400 43.154,191.783 40.802,192.575 40.798 C 192.809 40.796,193.534 40.517,194.187 40.176 C 195.616 39.431,196.906 39.689,198.576 41.054 C 203.185 44.823,205.479 45.389,208.624 43.533 C 209.432 43.056,210.963 42.528,212.026 42.360 C 213.089 42.192,214.463 41.685,215.079 41.232 C 215.696 40.780,217.159 40.229,218.331 40.009 C 220.823 39.541,221.200 39.353,221.200 38.576 C 221.200 38.123,221.880 38.000,224.400 38.000 C 226.940 38.000,227.600 38.121,227.600 38.585 M105.625 43.265 C 103.345 44.816,102.921 49.000,104.837 51.039 C 107.561 53.939,113.537 46.623,111.033 43.453 C 110.072 42.236,107.280 42.139,105.625 43.265 M153.696 47.700 C 152.922 48.664,152.912 51.077,153.680 51.557 C 155.125 52.459,165.104 52.131,165.409 51.171 C 165.879 49.691,165.259 48.384,163.799 47.774 C 162.013 47.027,154.282 46.971,153.696 47.700 M138.800 49.386 C 133.441 50.970,132.897 51.411,133.646 53.561 C 133.884 54.242,134.211 54.800,134.374 54.800 C 136.004 54.800,142.673 53.498,143.069 53.103 C 145.775 50.397,143.140 48.103,138.800 49.386 M158.600 61.971 C 154.412 62.253,153.809 62.496,154.428 63.653 C 154.813 64.371,155.124 64.431,157.329 64.212 C 158.688 64.076,160.586 63.899,161.546 63.816 C 162.507 63.734,163.476 63.484,163.700 63.260 C 164.286 62.674,163.750 61.589,162.913 61.665 C 162.521 61.700,160.580 61.838,158.600 61.971 M138.700 64.245 C 133.947 65.746,134.869 66.689,140.621 66.210 C 144.089 65.921,144.689 65.539,144.182 63.944 C 143.868 62.953,142.564 63.025,138.700 64.245 M164.467 79.043 L 165.232 79.886 162.729 80.113 C 159.882 80.371,159.337 80.206,160.197 79.346 C 160.529 79.014,160.800 78.497,160.800 78.197 C 160.800 77.557,163.322 77.193,163.551 77.800 C 163.634 78.020,164.046 78.579,164.467 79.043 M158.695 79.476 C 158.323 79.848,157.907 80.040,157.769 79.903 C 157.376 79.509,157.980 78.800,158.709 78.800 C 159.320 78.800,159.319 78.853,158.695 79.476 M156.000 79.800 C 156.408 80.291,156.380 80.400,155.849 80.400 C 155.492 80.400,155.200 80.130,155.200 79.800 C 155.200 79.470,155.268 79.200,155.351 79.200 C 155.434 79.200,155.726 79.470,156.000 79.800 M148.800 80.400 C 148.024 80.901,147.600 80.901,147.600 80.400 C 147.600 80.180,148.005 80.003,148.500 80.006 C 149.228 80.011,149.285 80.086,148.800 80.400 M99.660 103.980 C 99.748 104.244,99.951 104.447,100.110 104.430 C 100.588 104.381,100.496 103.832,99.980 103.660 C 99.716 103.572,99.572 103.716,99.660 103.980 M166.692 126.166 C 167.521 126.477,168.737 126.851,169.392 126.997 C 179.749 129.298,191.310 151.931,189.652 166.660 C 187.757 183.487,178.134 196.000,167.088 196.000 C 164.991 196.000,158.605 194.252,157.600 193.403 C 157.270 193.125,156.444 192.615,155.764 192.271 C 152.892 190.818,145.901 184.221,144.189 181.349 C 141.349 176.585,140.430 174.857,140.166 173.788 C 140.005 173.135,139.642 172.240,139.359 171.800 C 137.442 168.819,137.475 153.247,139.407 149.000 C 139.707 148.340,140.150 147.037,140.391 146.105 C 140.800 144.519,142.355 140.956,143.229 139.600 C 143.442 139.270,143.869 138.460,144.177 137.800 C 146.275 133.312,153.475 126.800,156.338 126.800 C 156.762 126.800,157.714 126.537,158.454 126.216 C 160.184 125.465,164.749 125.437,166.692 126.166 M260.921 138.170 C 266.878 140.444,274.385 147.966,274.402 151.680 C 274.404 151.966,274.685 152.737,275.028 153.394 C 277.981 159.058,278.066 172.973,275.190 180.000 C 274.785 180.990,274.353 182.272,274.232 182.849 C 273.348 187.037,265.588 197.031,260.657 200.331 C 251.260 206.619,236.739 205.389,231.224 197.837 C 230.908 197.403,230.363 196.763,230.013 196.413 C 228.848 195.248,226.855 191.688,226.385 189.934 C 226.130 188.980,225.748 187.988,225.535 187.728 C 223.701 185.489,223.727 168.326,225.572 163.474 C 225.799 162.878,226.154 161.334,226.362 160.045 C 227.571 152.540,238.488 138.800,243.243 138.800 C 243.464 138.800,244.399 138.459,245.322 138.043 C 247.907 136.876,248.272 136.828,253.400 136.985 C 257.369 137.107,258.671 137.312,260.921 138.170 M110.137 183.546 C 113.528 185.218,118.400 189.602,118.400 190.981 C 118.400 191.285,118.552 191.593,118.738 191.667 C 119.119 191.817,119.758 192.959,121.720 197.000 C 132.108 218.391,123.212 241.726,104.906 241.104 C 95.390 240.781,85.297 232.133,83.396 222.675 C 83.256 221.974,82.810 220.500,82.406 219.400 C 80.381 213.886,80.456 202.536,82.549 197.902 C 82.872 197.186,83.265 196.150,83.421 195.600 C 84.382 192.227,91.251 184.928,94.645 183.675 C 101.824 181.024,104.970 180.998,110.137 183.546 M320.573 199.019 C 323.879 200.561,326.155 202.169,327.498 203.912 C 329.179 206.095,331.074 209.255,331.389 210.400 C 331.540 210.950,331.920 211.968,332.233 212.663 C 333.457 215.377,333.314 231.012,332.052 232.540 C 331.843 232.793,331.544 233.720,331.388 234.600 C 331.231 235.480,330.692 237.010,330.189 238.000 C 329.686 238.990,328.702 241.017,328.002 242.504 C 322.881 253.384,312.671 260.998,303.200 260.999 C 297.828 261.000,294.933 260.159,293.038 258.049 C 292.619 257.582,292.060 257.200,291.796 257.200 C 290.616 257.200,286.459 251.874,285.346 248.938 C 285.083 248.244,284.586 247.245,284.241 246.719 C 282.246 243.674,282.171 228.458,284.136 225.434 C 284.435 224.975,284.900 223.880,285.170 223.000 C 287.533 215.314,297.272 202.835,302.019 201.411 C 302.559 201.249,303.370 200.884,303.822 200.600 C 304.274 200.316,305.624 199.811,306.822 199.477 C 308.020 199.144,309.900 198.591,311.000 198.247 C 313.894 197.345,317.628 197.646,320.573 199.019 M205.866 214.993 C 209.102 215.756,213.376 218.689,217.778 223.169 C 221.429 226.884,222.011 227.580,227.566 234.894 C 230.624 238.920,241.335 250.675,244.400 253.369 C 247.847 256.399,250.965 259.903,255.996 266.400 C 257.614 268.490,259.048 270.290,259.182 270.400 C 259.759 270.871,262.286 274.284,262.736 275.200 C 263.006 275.750,263.941 277.532,264.814 279.160 C 265.686 280.788,266.400 282.321,266.400 282.566 C 266.400 282.811,266.738 283.643,267.152 284.415 C 273.018 295.360,271.651 316.647,264.445 326.575 C 263.636 327.689,262.663 329.093,262.281 329.696 C 261.200 331.403,255.192 335.884,252.200 337.214 C 251.100 337.704,249.840 338.293,249.400 338.525 C 248.533 338.980,244.935 340.032,240.800 341.038 C 234.827 342.491,220.039 341.054,215.538 338.583 C 214.954 338.262,214.185 338.000,213.828 338.000 C 213.472 338.000,211.909 337.325,210.356 336.500 C 208.803 335.675,206.872 334.655,206.066 334.234 C 205.260 333.812,203.600 332.715,202.377 331.796 C 201.155 330.876,199.321 329.636,198.303 329.039 L 196.452 327.955 193.926 329.370 C 188.621 332.341,187.783 332.818,187.200 333.194 C 186.870 333.407,185.970 333.862,185.200 334.206 C 184.430 334.550,183.080 335.212,182.200 335.676 C 180.039 336.817,174.697 338.775,172.000 339.415 C 163.752 341.373,162.411 341.583,158.127 341.591 C 153.487 341.600,145.684 340.044,143.138 338.601 C 142.554 338.271,141.815 338.000,141.495 338.000 C 140.759 338.000,136.463 335.746,135.400 334.802 C 134.960 334.411,134.161 333.958,133.624 333.795 C 131.401 333.118,125.062 325.977,123.126 321.967 C 116.238 307.699,117.492 294.483,127.089 280.200 C 131.070 274.275,132.840 271.809,134.408 270.000 C 135.267 269.010,136.561 267.476,137.284 266.592 C 138.008 265.707,138.960 264.615,139.400 264.163 C 139.840 263.712,141.389 262.096,142.843 260.572 C 144.297 259.047,146.547 256.871,147.843 255.736 C 150.310 253.576,160.538 243.309,162.855 240.667 C 163.956 239.412,167.191 236.167,171.536 231.957 C 173.933 229.635,178.742 225.843,182.475 223.332 C 184.877 221.716,187.781 219.701,188.928 218.854 C 190.074 218.007,191.459 217.177,192.006 217.009 C 192.553 216.842,193.270 216.476,193.600 216.196 C 195.500 214.581,201.588 213.984,205.866 214.993 M31.417 245.972 C 31.144 246.414,31.775 246.892,32.144 246.522 C 32.525 246.142,32.454 245.600,32.024 245.600 C 31.817 245.600,31.544 245.768,31.417 245.972 M353.677 280.030 C 353.755 280.267,353.991 280.460,354.200 280.460 C 354.409 280.460,354.645 280.267,354.723 280.030 C 354.802 279.793,354.567 279.600,354.200 279.600 C 353.833 279.600,353.598 279.793,353.677 280.030 M314.077 352.830 C 314.156 353.067,314.391 353.260,314.600 353.260 C 314.809 353.260,315.045 353.067,315.123 352.830 C 315.202 352.594,314.967 352.400,314.600 352.400 C 314.233 352.400,313.998 352.594,314.077 352.830 M310.062 356.575 C 310.138 356.942,310.380 357.233,310.600 357.221 C 311.194 357.190,311.085 356.295,310.462 356.087 C 310.125 355.975,309.975 356.158,310.062 356.575 M144.267 375.745 C 144.267 376.077,143.980 376.215,143.533 376.098 C 143.130 375.993,142.800 375.748,142.800 375.553 C 142.800 375.359,143.130 375.200,143.533 375.200 C 143.937 375.200,144.267 375.445,144.267 375.745 M254.238 379.662 C 254.415 379.948,254.348 380.015,254.062 379.838 C 253.808 379.681,253.600 379.743,253.600 379.976 C 253.600 380.209,253.450 380.400,253.267 380.400 C 253.083 380.400,252.933 380.130,252.933 379.800 C 252.933 379.093,253.828 378.998,254.238 379.662 " stroke="none" fill="#fbfbfb" fill-rule="evenodd"></path><path id="path2" d="M151.300 9.465 C 151.025 9.576,150.800 9.972,150.800 10.344 C 150.800 10.717,150.556 11.377,150.258 11.811 C 149.961 12.245,149.614 13.390,149.489 14.355 C 148.939 18.592,141.165 19.376,139.032 15.409 C 137.378 12.335,134.247 12.810,132.958 16.332 C 132.028 18.873,131.367 19.447,128.800 19.941 C 120.105 21.615,119.551 21.861,118.933 24.323 C 118.129 27.529,122.061 29.199,128.200 28.258 C 132.917 27.535,133.587 27.769,134.785 30.565 C 137.178 36.147,142.876 34.928,142.743 28.862 C 142.692 26.565,143.357 25.982,146.335 25.712 L 148.776 25.491 149.849 27.967 C 152.039 33.017,156.816 32.464,157.821 27.045 C 158.378 24.041,158.812 23.893,167.262 23.819 C 171.402 23.783,173.215 22.135,172.617 18.952 C 172.129 16.350,170.027 15.510,164.326 15.640 C 158.427 15.775,158.042 15.614,157.012 12.582 C 155.922 9.376,154.051 8.355,151.300 9.465 M154.851 10.100 C 155.383 10.540,155.848 11.517,157.240 15.112 C 157.766 16.469,158.893 16.698,164.003 16.488 C 170.855 16.206,173.526 18.001,171.603 21.594 C 171.152 22.437,168.642 23.397,167.973 22.983 C 165.443 21.420,157.200 23.880,157.200 26.198 C 157.200 27.849,155.765 30.272,154.616 30.560 C 152.280 31.147,151.349 30.323,150.411 26.841 C 149.264 22.580,141.797 24.469,141.916 28.990 C 142.061 34.484,136.657 35.011,135.212 29.643 C 134.516 27.060,133.425 26.567,129.671 27.138 C 122.944 28.162,119.600 27.477,119.600 25.075 C 119.600 23.139,121.678 21.782,125.200 21.419 C 130.457 20.876,133.200 19.558,133.200 17.572 C 133.200 14.216,136.797 12.860,138.315 15.644 C 140.145 19.001,141.499 19.384,146.736 18.024 C 150.288 17.101,150.019 17.360,150.363 14.526 C 150.873 10.320,152.810 8.410,154.851 10.100 M145.220 32.380 C 143.070 34.530,146.341 36.472,148.782 34.495 L 149.653 33.789 148.727 32.941 C 147.275 31.611,146.167 31.433,145.220 32.380 M148.369 33.426 C 149.217 34.232,147.022 35.029,145.662 34.410 C 144.732 33.986,144.724 33.946,145.418 33.180 C 146.181 32.337,147.323 32.433,148.369 33.426 M102.639 34.456 C 91.521 38.849,91.819 56.606,103.079 60.622 C 112.802 64.091,124.160 50.354,119.613 40.627 C 116.897 34.819,108.994 31.946,102.639 34.456 M113.813 35.789 C 121.510 39.555,122.028 49.766,114.865 56.550 C 103.841 66.993,89.545 53.272,97.379 39.767 C 100.303 34.728,107.890 32.891,113.813 35.789 M151.167 38.158 C 151.075 38.245,149.046 38.525,146.658 38.780 C 142.470 39.226,134.096 41.092,132.538 41.926 C 132.122 42.149,130.616 42.631,129.191 42.997 C 126.299 43.740,124.583 45.071,124.059 46.977 C 123.744 48.123,125.263 59.803,126.376 64.800 C 126.596 65.790,126.959 67.655,127.183 68.944 C 128.204 74.837,131.464 76.517,139.711 75.401 C 142.180 75.067,146.900 74.519,150.200 74.184 C 153.500 73.848,156.740 73.410,157.400 73.209 C 160.505 72.266,163.198 72.259,164.189 73.190 C 166.760 75.605,171.230 73.747,171.818 70.019 C 171.942 69.238,172.430 66.890,172.905 64.800 C 174.287 58.711,174.222 45.180,172.800 43.045 C 170.672 39.848,164.599 38.000,156.224 38.000 C 153.534 38.000,151.258 38.071,151.167 38.158 M164.521 39.450 C 168.817 40.421,170.826 41.438,172.200 43.340 L 173.400 45.000 173.334 52.863 C 173.295 57.549,173.095 61.049,172.840 61.525 C 172.605 61.965,172.156 64.007,171.843 66.062 C 170.736 73.327,168.620 75.247,164.708 72.536 L 163.174 71.473 157.287 72.381 C 154.049 72.881,149.960 73.452,148.200 73.649 C 146.440 73.847,143.470 74.205,141.600 74.445 C 134.554 75.348,133.886 75.345,131.703 74.406 C 129.421 73.425,127.600 70.514,127.600 67.850 C 127.600 67.119,127.259 64.894,126.843 62.906 C 126.427 60.917,125.767 56.611,125.377 53.338 C 124.440 45.474,124.439 45.475,129.603 43.718 C 131.691 43.007,133.760 42.251,134.200 42.037 C 135.025 41.636,141.225 40.393,147.200 39.430 C 152.112 38.638,160.971 38.648,164.521 39.450 M220.383 40.749 C 217.728 40.953,216.716 41.208,215.843 41.895 C 215.224 42.381,214.062 42.896,213.259 43.038 C 212.457 43.181,211.239 43.635,210.553 44.049 C 209.559 44.647,208.512 44.800,205.406 44.800 C 201.233 44.800,200.933 44.675,197.758 41.612 C 195.870 39.791,192.343 40.745,191.639 43.267 C 190.139 48.636,195.937 52.613,205.200 52.570 L 211.000 52.543 215.400 50.837 C 223.154 47.830,227.396 47.433,228.897 49.573 C 231.970 53.956,238.327 51.243,236.957 46.134 C 236.829 45.658,236.291 45.159,235.762 45.026 C 235.233 44.893,234.800 44.542,234.800 44.246 C 234.800 43.029,231.171 40.800,229.190 40.800 C 228.157 40.800,226.522 40.730,225.556 40.644 C 224.590 40.558,222.262 40.605,220.383 40.749 M104.972 41.868 C 99.392 45.486,102.767 55.815,108.523 52.734 C 111.289 51.254,113.858 46.695,113.207 44.424 C 112.216 40.971,108.253 39.741,104.972 41.868 M109.996 41.798 C 113.286 43.499,113.021 47.967,109.444 51.108 C 106.635 53.574,104.347 53.024,103.247 49.616 C 101.681 44.768,106.019 39.742,109.996 41.798 M196.300 41.452 C 196.795 41.585,197.200 41.938,197.200 42.237 C 197.200 42.537,197.695 43.098,198.300 43.486 C 198.905 43.873,199.613 44.392,199.874 44.640 C 201.944 46.608,214.331 44.785,217.342 42.069 C 218.435 41.084,230.669 41.065,231.219 42.048 C 231.418 42.404,232.125 42.921,232.791 43.196 C 233.456 43.472,234.000 43.846,234.000 44.028 C 234.000 44.210,234.450 44.844,235.000 45.438 C 236.057 46.578,236.136 46.809,236.009 48.400 C 235.752 51.631,230.620 51.668,228.633 48.454 C 227.607 46.793,222.181 47.170,217.800 49.207 C 205.683 54.841,190.429 51.264,192.199 43.204 C 192.564 41.543,194.134 40.872,196.300 41.452 M152.480 46.480 C 151.913 47.047,151.838 51.924,152.382 52.785 C 152.684 53.262,154.032 53.369,159.676 53.365 L 166.600 53.359 166.929 51.780 C 167.365 49.692,166.545 47.196,165.200 46.517 C 163.845 45.833,153.159 45.801,152.480 46.480 M164.900 47.297 C 166.151 48.118,166.726 50.366,166.059 51.831 C 165.437 53.196,153.534 53.372,152.814 52.026 C 152.154 50.794,152.307 47.750,153.067 46.990 C 154.035 46.022,163.322 46.263,164.900 47.297 M138.800 47.838 C 133.063 49.348,131.832 50.304,132.149 53.005 C 132.576 56.636,133.421 57.368,136.093 56.419 C 136.812 56.164,138.983 55.627,140.919 55.225 C 145.218 54.334,145.000 54.558,145.000 51.028 C 145.000 46.428,144.715 46.281,138.800 47.838 M143.920 48.480 C 144.606 49.166,144.533 53.010,143.820 53.723 C 143.501 54.042,142.078 54.427,140.658 54.579 C 139.238 54.731,137.242 55.106,136.223 55.413 C 132.703 56.472,130.924 51.567,134.300 50.113 C 138.498 48.306,142.984 47.544,143.920 48.480 M157.759 60.372 C 152.694 60.658,150.973 62.324,152.785 65.189 C 153.617 66.506,163.710 65.418,165.043 63.868 C 166.879 61.733,165.963 59.918,163.126 60.072 C 162.397 60.112,159.982 60.247,157.759 60.372 M164.167 61.043 C 164.924 61.333,164.997 62.794,164.300 63.687 C 163.767 64.370,155.407 65.408,154.193 64.942 C 151.048 63.735,153.246 61.501,157.901 61.173 C 163.364 60.788,163.497 60.786,164.167 61.043 M139.400 62.274 C 135.572 63.143,134.156 64.377,134.610 66.447 C 135.389 69.992,145.600 68.137,145.600 64.451 C 145.600 62.154,143.374 61.373,139.400 62.274 M144.320 62.880 C 146.089 64.649,144.823 66.326,141.286 66.901 C 136.439 67.689,135.223 67.411,135.206 65.510 C 135.191 63.855,143.032 61.592,144.320 62.880 M158.283 127.016 C 151.541 128.356,146.657 133.526,141.859 144.400 C 139.391 149.995,138.274 157.529,138.837 164.796 C 139.280 170.518,140.096 172.770,144.655 180.865 C 145.613 182.565,148.973 186.105,152.121 188.728 C 163.198 197.960,174.768 196.839,182.363 185.800 C 188.873 176.336,190.832 159.694,186.581 149.950 C 186.042 148.712,185.600 147.478,185.600 147.208 C 185.600 146.295,181.786 139.018,180.139 136.788 C 174.082 128.590,166.782 125.325,158.283 127.016 M169.829 128.816 C 173.499 130.858,175.328 132.252,177.400 134.586 C 179.343 136.775,183.600 143.378,183.600 144.203 C 183.600 144.428,183.936 145.239,184.347 146.006 C 184.757 146.773,185.228 148.030,185.393 148.800 C 185.558 149.570,185.847 150.393,186.036 150.629 C 187.229 152.117,187.792 156.377,187.777 163.800 C 187.727 189.385,168.788 202.643,152.676 188.373 C 149.548 185.603,147.082 183.001,145.855 181.176 C 145.050 179.979,144.124 178.648,143.796 178.219 C 143.468 177.789,143.200 177.256,143.200 177.034 C 143.200 176.813,142.677 175.545,142.038 174.216 C 138.426 166.711,138.398 154.186,141.974 146.200 C 142.368 145.320,142.918 143.880,143.196 143.000 C 143.474 142.120,143.921 141.130,144.190 140.800 C 144.459 140.470,144.778 139.916,144.900 139.568 C 148.241 130.063,161.665 124.274,169.829 128.816 M246.583 138.523 C 238.243 140.797,231.890 147.287,227.841 157.668 C 227.268 159.136,226.800 160.641,226.800 161.014 C 226.800 161.386,226.413 163.245,225.939 165.145 C 224.538 170.771,224.657 182.991,226.156 187.400 C 231.330 202.620,244.409 207.952,258.741 200.683 C 262.182 198.937,267.842 193.247,269.965 189.399 C 270.450 188.520,271.385 186.838,272.043 185.663 C 280.486 170.586,276.359 147.314,264.000 140.306 C 259.816 137.934,251.765 137.110,246.583 138.523 M262.761 140.552 C 284.394 151.747,277.517 195.084,252.978 202.195 C 237.744 206.610,225.600 195.366,225.600 176.848 C 225.600 160.274,231.259 147.489,241.217 141.566 C 246.879 138.198,257.268 137.710,262.761 140.552 M98.989 183.129 C 97.884 183.541,96.316 184.002,95.507 184.154 C 93.397 184.549,88.726 188.506,86.524 191.762 C 73.751 210.649,87.817 243.348,107.495 240.513 C 118.419 238.940,125.125 229.570,125.184 215.800 C 125.269 195.843,111.377 178.516,98.989 183.129 M107.776 184.051 C 125.625 189.910,130.532 229.225,114.432 237.384 C 103.796 242.774,89.513 236.813,86.198 225.600 C 86.035 225.050,85.768 224.420,85.603 224.200 C 83.379 221.222,81.619 208.003,82.726 202.600 C 84.588 193.516,91.052 185.528,97.489 184.356 C 98.760 184.125,99.971 183.770,100.180 183.568 C 100.862 182.908,105.120 183.179,107.776 184.051 M313.400 198.649 C 312.960 198.756,311.149 199.189,309.376 199.611 C 299.378 201.987,291.616 209.411,286.594 221.400 C 283.925 227.772,283.719 228.568,283.384 233.797 C 282.244 251.558,295.150 264.577,308.994 259.633 C 311.258 258.825,312.059 258.374,316.400 255.464 C 322.654 251.273,328.918 241.376,331.439 231.702 C 333.352 224.358,332.484 211.840,329.853 208.838 C 329.545 208.487,328.927 207.480,328.480 206.600 C 326.076 201.873,317.891 197.558,313.400 198.649 M318.184 199.873 C 322.664 200.961,326.514 203.946,328.535 207.900 C 328.901 208.615,329.459 209.695,329.776 210.300 C 332.844 216.154,332.348 229.248,328.743 237.600 C 327.643 240.146,324.032 246.905,323.613 247.200 C 323.457 247.310,322.210 248.707,320.843 250.303 C 313.015 259.445,303.067 262.150,294.628 257.431 C 284.281 251.644,280.885 235.273,287.229 221.756 C 287.653 220.852,288.000 219.903,288.000 219.648 C 288.000 219.216,288.432 218.470,291.156 214.200 C 296.958 205.105,304.249 200.533,315.000 199.246 C 315.220 199.219,316.653 199.502,318.184 199.873 M198.000 215.611 C 195.258 215.944,192.798 217.185,186.862 221.226 C 174.697 229.508,176.269 228.115,156.334 248.266 C 152.888 251.750,148.097 256.490,145.688 258.800 C 143.279 261.110,139.803 264.800,137.963 267.000 C 136.124 269.200,134.304 271.345,133.918 271.766 C 133.532 272.188,132.718 273.268,132.109 274.166 C 131.499 275.065,130.237 276.853,129.303 278.140 C 118.344 293.248,116.576 309.933,124.529 323.200 C 129.179 330.955,138.405 337.229,148.400 339.433 C 156.374 341.192,159.710 341.225,167.200 339.622 C 176.681 337.594,183.354 334.850,192.872 329.067 C 194.562 328.040,196.180 327.200,196.469 327.200 C 196.904 327.200,200.930 329.706,201.600 330.395 C 201.786 330.585,205.170 332.785,207.000 333.904 C 212.313 337.154,217.433 338.880,226.400 340.442 C 239.305 342.690,256.692 336.702,262.524 328.000 C 262.892 327.450,263.810 326.100,264.564 325.000 C 266.274 322.504,269.405 313.028,269.984 308.600 C 271.144 299.723,268.965 288.800,264.199 279.600 C 263.344 277.950,262.320 275.970,261.923 275.200 C 261.526 274.430,259.828 272.180,258.149 270.200 C 256.469 268.220,254.804 266.157,254.448 265.615 C 254.091 265.073,253.209 263.993,252.487 263.215 C 251.765 262.437,250.415 260.820,249.487 259.623 C 248.559 258.426,246.996 256.716,246.013 255.823 C 240.712 251.008,229.240 238.617,226.648 234.908 C 216.035 219.720,208.110 214.382,198.000 215.611 M208.000 217.269 C 211.489 219.232,213.436 220.785,217.033 224.474 C 220.417 227.944,225.717 234.367,226.709 236.200 C 227.428 237.527,235.021 245.785,241.405 252.183 C 244.708 255.492,248.128 259.088,249.005 260.174 C 249.882 261.260,251.266 262.885,252.081 263.786 C 252.896 264.686,254.066 266.168,254.681 267.077 C 255.296 267.987,256.562 269.565,257.494 270.585 C 260.869 274.278,262.896 277.872,266.523 286.600 C 267.166 288.146,267.416 289.046,268.637 294.200 C 269.544 298.027,269.786 306.509,269.076 309.600 C 266.166 322.281,263.165 328.017,257.124 332.444 C 254.409 334.433,249.317 337.200,248.371 337.200 C 248.145 337.200,247.410 337.485,246.736 337.833 C 241.861 340.354,222.655 340.359,217.649 337.840 C 217.072 337.550,216.100 337.192,215.489 337.046 C 212.892 336.423,203.132 331.164,201.967 329.760 C 201.711 329.452,201.254 329.200,200.951 329.200 C 200.648 329.200,200.399 329.065,200.397 328.900 C 200.380 326.968,195.665 326.335,193.169 327.930 C 189.765 330.104,189.051 330.512,185.240 332.459 C 171.221 339.620,154.763 341.906,145.649 337.958 C 144.686 337.541,143.729 337.200,143.523 337.200 C 141.608 337.200,133.840 332.521,130.269 329.216 C 127.790 326.922,123.600 321.026,123.600 319.831 C 123.600 319.457,123.167 318.217,122.638 317.075 C 121.435 314.482,119.836 304.998,120.130 302.200 C 120.468 298.990,121.873 293.435,122.771 291.758 C 123.227 290.908,123.600 289.985,123.600 289.707 C 123.600 289.429,124.500 287.581,125.600 285.600 C 126.700 283.619,127.600 281.882,127.600 281.740 C 127.600 281.598,128.197 280.744,128.927 279.841 C 129.657 278.939,130.906 277.210,131.701 276.000 C 133.985 272.525,141.166 264.105,144.833 260.600 C 148.821 256.788,161.307 244.297,167.200 238.223 C 172.101 233.172,178.406 227.741,182.660 224.907 C 183.067 224.636,184.120 223.937,185.000 223.352 C 185.880 222.768,187.706 221.518,189.058 220.573 C 195.917 215.782,203.122 214.525,208.000 217.269 " stroke="none" fill="#fccdd4" fill-rule="evenodd"></path><path id="path3" d="M152.617 8.373 C 152.472 8.608,151.918 8.800,151.387 8.800 C 150.174 8.800,149.345 10.309,148.599 13.874 C 147.931 17.065,148.317 16.750,144.709 17.055 C 141.861 17.295,141.634 17.254,140.845 16.355 C 137.873 12.969,137.658 12.800,136.331 12.806 C 134.168 12.815,133.067 13.613,132.383 15.666 C 131.415 18.570,131.088 18.800,127.925 18.800 C 124.983 18.800,123.600 19.252,123.600 20.214 C 123.600 20.640,123.118 20.800,121.829 20.800 C 119.917 20.800,118.800 21.543,118.800 22.814 C 118.800 23.231,118.447 23.761,118.015 23.992 C 117.128 24.466,117.290 25.374,118.464 26.516 C 118.869 26.909,119.200 27.371,119.200 27.541 C 119.200 28.901,126.543 29.752,130.447 28.845 C 132.285 28.417,132.866 28.759,134.217 31.066 C 136.765 35.414,139.100 36.190,141.909 33.625 C 143.057 32.576,143.200 32.207,143.200 30.299 C 143.200 26.283,147.351 24.832,149.003 28.271 C 151.516 33.499,155.361 33.650,158.286 28.633 C 158.553 28.175,158.778 27.327,158.786 26.749 C 158.809 25.025,159.543 24.773,164.659 24.735 C 169.824 24.697,171.633 24.233,172.431 22.742 C 172.703 22.233,173.168 21.575,173.463 21.280 C 174.382 20.361,174.127 18.158,173.000 17.271 C 172.450 16.839,172.000 16.292,172.000 16.057 C 172.000 15.135,170.231 14.797,164.690 14.663 C 158.577 14.515,158.000 14.389,158.000 13.205 C 158.000 12.794,157.745 12.202,157.432 11.890 C 157.120 11.577,156.805 10.806,156.732 10.175 C 156.628 9.272,156.345 8.972,155.400 8.764 C 154.740 8.618,153.903 8.374,153.540 8.222 C 153.178 8.070,152.762 8.138,152.617 8.373 M155.688 9.745 C 155.987 10.045,156.583 11.321,157.012 12.582 C 158.042 15.614,158.427 15.775,164.326 15.640 C 170.027 15.510,172.129 16.350,172.617 18.952 C 173.215 22.135,171.402 23.783,167.262 23.819 C 158.812 23.893,158.378 24.041,157.821 27.045 C 156.816 32.464,152.039 33.017,149.849 27.967 L 148.776 25.491 146.335 25.712 C 143.357 25.982,142.692 26.565,142.743 28.862 C 142.876 34.928,137.178 36.147,134.785 30.565 C 133.587 27.769,132.917 27.535,128.200 28.258 C 122.061 29.199,118.129 27.529,118.933 24.323 C 119.551 21.861,120.105 21.615,128.800 19.941 C 131.367 19.447,132.028 18.873,132.958 16.332 C 134.247 12.810,137.378 12.335,139.032 15.409 C 140.312 17.790,141.102 18.087,144.889 17.612 C 148.655 17.140,149.175 16.772,149.489 14.355 C 149.614 13.390,149.961 12.245,150.258 11.811 C 150.556 11.377,150.800 10.717,150.800 10.344 C 150.800 9.167,154.639 8.696,155.688 9.745 M145.398 31.180 C 144.261 31.636,143.418 34.112,144.018 35.233 C 144.652 36.419,148.403 36.175,149.715 34.863 L 150.582 33.996 149.191 32.638 C 147.627 31.112,146.575 30.708,145.398 31.180 M148.727 32.941 L 149.653 33.789 148.782 34.495 C 147.667 35.398,144.980 35.445,144.643 34.567 C 143.676 32.047,146.516 30.916,148.727 32.941 M102.200 33.809 C 90.367 38.852,90.936 56.987,103.066 61.411 L 106.028 62.491 108.857 61.582 C 113.145 60.203,119.600 54.792,119.600 52.576 C 119.600 52.273,119.969 51.317,120.420 50.451 C 123.195 45.128,120.333 37.022,114.819 34.588 C 114.039 34.243,113.040 33.755,112.600 33.503 C 110.875 32.515,104.817 32.694,102.200 33.809 M112.871 34.553 C 119.676 37.352,122.204 43.027,119.766 50.030 C 115.758 61.541,103.187 64.860,97.070 56.021 C 89.028 44.402,100.134 29.314,112.871 34.553 M123.119 36.610 C 123.734 37.848,124.788 38.690,124.234 37.500 C 124.105 37.225,123.893 36.697,123.761 36.328 C 123.629 35.958,123.277 35.562,122.979 35.447 C 122.570 35.290,122.604 35.574,123.119 36.610 M151.800 37.054 C 151.140 37.152,150.150 37.404,149.600 37.615 C 149.050 37.825,146.686 38.160,144.346 38.359 C 142.006 38.558,138.946 39.085,137.546 39.530 C 133.707 40.751,131.529 41.462,130.200 41.931 C 129.540 42.163,128.230 42.553,127.288 42.796 C 123.808 43.697,122.347 47.738,123.600 53.000 C 123.810 53.880,124.257 56.760,124.593 59.400 C 124.930 62.040,125.561 65.550,125.996 67.200 C 126.431 68.850,126.789 70.503,126.793 70.872 C 126.805 72.006,128.524 74.290,130.000 75.133 C 133.026 76.861,135.286 76.900,145.200 75.396 C 147.290 75.079,151.070 74.633,153.600 74.404 C 156.130 74.176,159.161 73.779,160.336 73.523 C 162.231 73.109,162.633 73.144,163.907 73.828 C 168.003 76.031,171.720 74.414,172.410 70.127 C 172.626 68.787,173.072 67.046,173.401 66.258 C 173.731 65.470,174.000 63.871,174.000 62.704 C 174.000 61.537,174.450 58.808,175.000 56.640 C 176.338 51.364,176.198 47.628,174.585 45.600 C 174.322 45.270,173.998 44.537,173.864 43.972 C 172.817 39.546,160.661 35.734,151.800 37.054 M164.257 38.648 C 168.359 39.493,171.518 41.119,172.800 43.045 C 174.222 45.180,174.287 58.711,172.905 64.800 C 172.430 66.890,171.942 69.238,171.818 70.019 C 171.230 73.747,166.760 75.605,164.189 73.190 C 163.198 72.259,160.505 72.266,157.400 73.209 C 156.740 73.410,153.500 73.848,150.200 74.184 C 146.900 74.519,142.180 75.067,139.711 75.401 C 131.464 76.517,128.204 74.837,127.183 68.944 C 126.959 67.655,126.596 65.790,126.376 64.800 C 125.263 59.803,123.744 48.123,124.059 46.977 C 124.583 45.071,126.299 43.740,129.191 42.997 C 130.616 42.631,132.122 42.149,132.538 41.926 C 134.096 41.092,142.470 39.226,146.658 38.780 C 149.046 38.525,151.075 38.245,151.167 38.158 C 151.644 37.705,161.467 38.073,164.257 38.648 M221.200 38.576 C 221.200 39.353,220.823 39.541,218.331 40.009 C 217.159 40.229,215.696 40.780,215.079 41.232 C 214.463 41.685,213.089 42.192,212.026 42.360 C 210.963 42.528,209.432 43.056,208.624 43.533 C 205.479 45.389,203.185 44.823,198.576 41.054 C 196.906 39.689,195.616 39.431,194.187 40.176 C 193.534 40.517,192.809 40.796,192.575 40.798 C 191.783 40.802,190.400 43.154,190.408 44.484 C 190.422 47.024,193.200 50.259,197.205 52.403 C 200.790 54.321,210.254 53.631,217.000 50.959 C 223.711 48.300,226.132 48.252,229.055 50.716 C 231.929 53.140,234.923 53.477,236.810 51.590 C 239.002 49.398,236.948 42.000,234.147 42.000 C 233.833 42.000,233.478 41.746,233.359 41.437 C 233.121 40.818,231.904 40.268,229.300 39.603 C 228.274 39.341,227.600 38.938,227.600 38.585 C 227.600 38.121,226.940 38.000,224.400 38.000 C 221.880 38.000,221.200 38.123,221.200 38.576 M229.190 40.800 C 231.171 40.800,234.800 43.029,234.800 44.246 C 234.800 44.542,235.233 44.893,235.762 45.026 C 236.291 45.159,236.829 45.658,236.957 46.134 C 238.327 51.243,231.970 53.956,228.897 49.573 C 227.396 47.433,223.154 47.830,215.400 50.837 L 211.000 52.543 205.200 52.570 C 195.937 52.613,190.139 48.636,191.639 43.267 C 192.343 40.745,195.870 39.791,197.758 41.612 C 200.933 44.675,201.233 44.800,205.406 44.800 C 208.512 44.800,209.559 44.647,210.553 44.049 C 211.239 43.635,212.457 43.181,213.259 43.038 C 214.062 42.896,215.224 42.381,215.843 41.895 C 217.043 40.951,221.930 40.321,225.556 40.644 C 226.522 40.730,228.157 40.800,229.190 40.800 M107.200 41.494 C 102.635 43.254,101.271 49.459,104.865 52.116 C 108.225 54.601,114.281 46.863,111.776 43.287 C 110.689 41.735,108.649 40.936,107.200 41.494 M111.033 43.453 C 112.784 45.669,109.282 52.000,106.306 52.000 C 104.523 52.000,103.161 48.397,103.887 45.600 C 104.631 42.733,109.345 41.317,111.033 43.453 M178.000 42.900 C 178.000 43.259,178.192 43.671,178.427 43.816 C 179.113 44.240,179.180 43.861,178.567 43.023 C 178.093 42.374,178.000 42.354,178.000 42.900 M153.067 46.990 C 152.307 47.750,152.154 50.794,152.814 52.026 C 153.534 53.372,165.437 53.196,166.059 51.831 C 166.726 50.366,166.151 48.118,164.900 47.297 C 163.322 46.263,154.035 46.022,153.067 46.990 M163.799 47.774 C 165.259 48.384,165.879 49.691,165.409 51.171 C 165.104 52.131,155.125 52.459,153.680 51.557 C 152.912 51.077,152.922 48.664,153.696 47.700 C 154.282 46.971,162.013 47.027,163.799 47.774 M138.200 48.762 C 133.233 50.222,132.800 50.528,132.800 52.580 C 132.800 55.337,133.780 56.148,136.223 55.413 C 137.242 55.106,139.238 54.731,140.658 54.579 C 143.873 54.235,144.400 53.738,144.400 51.051 C 144.400 47.788,143.122 47.316,138.200 48.762 M143.408 49.465 C 144.150 50.207,143.963 52.208,143.069 53.103 C 142.673 53.498,136.004 54.800,134.374 54.800 C 133.815 54.800,133.200 52.348,133.581 51.636 C 134.499 49.920,142.169 48.226,143.408 49.465 M157.901 61.173 C 153.246 61.501,151.048 63.735,154.193 64.942 C 155.407 65.408,163.767 64.370,164.300 63.687 C 164.997 62.794,164.924 61.333,164.167 61.043 C 163.497 60.786,163.364 60.788,157.901 61.173 M163.866 62.227 C 164.222 63.156,163.503 63.649,161.546 63.816 C 160.586 63.899,158.688 64.076,157.329 64.212 C 155.124 64.431,154.813 64.371,154.428 63.653 C 153.809 62.496,154.412 62.253,158.600 61.971 C 160.580 61.838,162.521 61.700,162.913 61.665 C 163.304 61.629,163.733 61.882,163.866 62.227 M139.692 63.020 C 135.671 64.103,134.538 65.134,135.572 66.769 C 136.004 67.450,137.670 67.489,141.286 66.901 C 144.632 66.357,144.800 66.250,144.800 64.656 C 144.800 62.322,143.652 61.954,139.692 63.020 M144.182 63.944 C 144.689 65.539,144.089 65.921,140.621 66.210 C 134.869 66.689,133.947 65.746,138.700 64.245 C 142.564 63.025,143.868 62.953,144.182 63.944 M122.860 76.380 C 123.032 76.896,123.581 76.988,123.630 76.510 C 123.647 76.350,123.444 76.148,123.180 76.060 C 122.916 75.972,122.772 76.116,122.860 76.380 M158.454 126.216 C 157.714 126.537,156.762 126.800,156.338 126.800 C 153.475 126.800,146.275 133.312,144.177 137.800 C 143.869 138.460,143.442 139.270,143.229 139.600 C 142.355 140.956,140.800 144.519,140.391 146.105 C 140.150 147.037,139.707 148.340,139.407 149.000 C 137.475 153.247,137.442 168.819,139.359 171.800 C 139.642 172.240,140.005 173.135,140.166 173.788 C 140.430 174.857,141.349 176.585,144.189 181.349 C 145.901 184.221,152.892 190.818,155.764 192.271 C 156.444 192.615,157.270 193.125,157.600 193.403 C 158.605 194.252,164.991 196.000,167.088 196.000 C 182.120 196.000,193.402 173.519,188.467 153.400 C 185.531 141.429,176.196 128.508,169.392 126.997 C 168.737 126.851,167.521 126.477,166.692 126.166 C 164.749 125.437,160.184 125.465,158.454 126.216 M166.511 126.970 C 171.046 127.838,176.350 131.659,180.139 136.788 C 181.786 139.018,185.600 146.295,185.600 147.208 C 185.600 147.478,186.042 148.712,186.581 149.950 C 190.832 159.694,188.873 176.336,182.363 185.800 C 174.768 196.839,163.198 197.960,152.121 188.728 C 148.973 186.105,145.613 182.565,144.655 180.865 C 140.096 172.770,139.280 170.518,138.837 164.796 C 137.078 142.088,150.395 123.887,166.511 126.970 M247.800 137.062 C 247.360 137.185,246.245 137.626,245.322 138.043 C 244.399 138.459,243.464 138.800,243.243 138.800 C 238.488 138.800,227.571 152.540,226.362 160.045 C 226.154 161.334,225.799 162.878,225.572 163.474 C 223.727 168.326,223.701 185.489,225.535 187.728 C 225.748 187.988,226.130 188.980,226.385 189.934 C 226.855 191.688,228.848 195.248,230.013 196.413 C 230.363 196.763,230.908 197.403,231.224 197.837 C 236.739 205.389,251.260 206.619,260.657 200.331 C 265.588 197.031,273.348 187.037,274.232 182.849 C 274.353 182.272,274.785 180.990,275.190 180.000 C 278.066 172.973,277.981 159.058,275.028 153.394 C 274.685 152.737,274.404 151.966,274.402 151.680 C 274.391 149.311,268.702 142.380,264.721 139.885 C 261.091 137.611,251.539 136.017,247.800 137.062 M259.600 138.672 C 274.906 142.284,281.786 168.265,272.043 185.663 C 271.385 186.838,270.450 188.520,269.965 189.399 C 260.404 206.733,238.040 208.864,228.850 193.317 C 224.910 186.652,223.642 174.371,225.939 165.145 C 226.413 163.245,226.800 161.386,226.800 161.014 C 226.800 160.641,227.268 159.136,227.841 157.668 C 233.933 142.049,245.243 135.284,259.600 138.672 M51.830 156.451 C 51.200 157.064,51.173 157.200,51.681 157.200 C 52.406 157.200,53.389 156.158,52.919 155.887 C 52.744 155.785,52.254 156.039,51.830 156.451 M345.600 163.737 C 345.600 163.859,346.050 164.444,346.600 165.038 C 347.150 165.631,347.597 165.956,347.593 165.758 C 347.586 165.376,345.600 163.363,345.600 163.737 M98.600 182.355 C 94.016 183.780,93.074 184.262,90.356 186.580 C 87.648 188.890,83.970 193.674,83.421 195.600 C 83.265 196.150,82.872 197.186,82.549 197.902 C 80.456 202.536,80.381 213.886,82.406 219.400 C 82.810 220.500,83.256 221.974,83.396 222.675 C 85.297 232.133,95.390 240.781,104.906 241.104 C 123.212 241.726,132.108 218.391,121.720 197.000 C 119.758 192.959,119.119 191.817,118.738 191.667 C 118.552 191.593,118.400 191.285,118.400 190.981 C 118.400 190.678,117.303 189.256,115.961 187.822 C 111.113 182.639,104.444 180.539,98.600 182.355 M109.000 183.735 C 123.768 189.907,130.529 220.412,120.000 233.366 C 104.658 252.240,78.547 232.153,81.965 204.106 C 83.041 195.277,89.873 185.211,95.507 184.154 C 96.316 184.002,97.884 183.541,98.989 183.129 C 101.686 182.125,105.732 182.370,109.000 183.735 M311.000 198.247 C 309.900 198.591,308.020 199.144,306.822 199.477 C 305.624 199.811,304.274 200.316,303.822 200.600 C 303.370 200.884,302.559 201.249,302.019 201.411 C 297.272 202.835,287.533 215.314,285.170 223.000 C 284.900 223.880,284.435 224.975,284.136 225.434 C 282.171 228.458,282.246 243.674,284.241 246.719 C 284.586 247.245,285.083 248.244,285.346 248.938 C 286.459 251.874,290.616 257.200,291.796 257.200 C 292.060 257.200,292.619 257.582,293.038 258.049 C 298.409 264.031,311.672 261.622,320.095 253.134 C 323.928 249.272,326.348 246.019,328.002 242.504 C 328.702 241.017,329.686 238.990,330.189 238.000 C 330.692 237.010,331.231 235.480,331.388 234.600 C 331.544 233.720,331.843 232.793,332.052 232.540 C 333.314 231.012,333.457 215.377,332.233 212.663 C 331.920 211.968,331.540 210.950,331.389 210.400 C 330.692 207.861,326.998 202.860,324.649 201.275 C 319.817 198.014,315.103 196.968,311.000 198.247 M319.928 199.609 C 323.744 201.059,327.027 203.743,328.480 206.600 C 328.927 207.480,329.545 208.487,329.853 208.838 C 330.160 209.189,330.878 211.079,331.448 213.038 C 334.990 225.222,330.327 241.580,320.332 252.029 C 317.329 255.169,312.583 258.352,308.994 259.633 C 295.150 264.577,282.244 251.558,283.384 233.797 C 283.719 228.568,283.925 227.772,286.594 221.400 C 291.616 209.411,299.378 201.987,309.376 199.611 C 311.149 199.189,312.960 198.756,313.400 198.649 C 314.740 198.324,317.684 198.757,319.928 199.609 M196.200 215.085 C 195.100 215.415,193.930 215.915,193.600 216.196 C 193.270 216.476,192.553 216.842,192.006 217.009 C 191.459 217.177,190.074 218.007,188.928 218.854 C 187.781 219.701,184.877 221.716,182.475 223.332 C 178.742 225.843,173.933 229.635,171.536 231.957 C 167.191 236.167,163.956 239.412,162.855 240.667 C 160.538 243.309,150.310 253.576,147.843 255.736 C 146.547 256.871,144.297 259.047,142.843 260.572 C 141.389 262.096,139.840 263.712,139.400 264.163 C 138.960 264.615,138.008 265.707,137.284 266.592 C 136.561 267.476,135.267 269.010,134.408 270.000 C 132.840 271.809,131.070 274.275,127.089 280.200 C 117.492 294.483,116.238 307.699,123.126 321.967 C 125.062 325.977,131.401 333.118,133.624 333.795 C 134.161 333.958,134.960 334.411,135.400 334.802 C 136.463 335.746,140.759 338.000,141.495 338.000 C 141.815 338.000,142.554 338.271,143.138 338.601 C 145.684 340.044,153.487 341.600,158.127 341.591 C 162.411 341.583,163.752 341.373,172.000 339.415 C 174.697 338.775,180.039 336.817,182.200 335.676 C 183.080 335.212,184.430 334.550,185.200 334.206 C 185.970 333.862,186.870 333.407,187.200 333.194 C 187.783 332.818,188.621 332.341,193.926 329.370 L 196.452 327.955 198.303 329.039 C 199.321 329.636,201.155 330.876,202.377 331.796 C 203.600 332.715,205.260 333.812,206.066 334.234 C 206.872 334.655,208.803 335.675,210.356 336.500 C 211.909 337.325,213.472 338.000,213.828 338.000 C 214.185 338.000,214.954 338.262,215.538 338.583 C 220.039 341.054,234.827 342.491,240.800 341.038 C 244.935 340.032,248.533 338.980,249.400 338.525 C 249.840 338.293,251.100 337.704,252.200 337.214 C 255.192 335.884,261.200 331.403,262.281 329.696 C 262.663 329.093,263.636 327.689,264.445 326.575 C 271.651 316.647,273.018 295.360,267.152 284.415 C 266.738 283.643,266.400 282.811,266.400 282.566 C 266.400 282.321,265.686 280.788,264.814 279.160 C 263.941 277.532,263.006 275.750,262.736 275.200 C 262.286 274.284,259.759 270.871,259.182 270.400 C 259.048 270.290,257.614 268.490,255.996 266.400 C 250.965 259.903,247.847 256.399,244.400 253.369 C 241.335 250.675,230.624 238.920,227.566 234.894 C 222.011 227.580,221.429 226.884,217.778 223.169 C 210.146 215.404,203.465 212.900,196.200 215.085 M207.932 216.439 C 212.741 218.506,220.619 226.280,226.648 234.908 C 229.240 238.617,240.712 251.008,246.013 255.823 C 246.996 256.716,248.559 258.426,249.487 259.623 C 250.415 260.820,251.765 262.437,252.487 263.215 C 253.209 263.993,254.091 265.073,254.448 265.615 C 254.804 266.157,256.469 268.220,258.149 270.200 C 259.828 272.180,261.526 274.430,261.923 275.200 C 262.320 275.970,263.344 277.950,264.199 279.600 C 268.965 288.800,271.144 299.723,269.984 308.600 C 269.405 313.028,266.274 322.504,264.564 325.000 C 263.810 326.100,262.892 327.450,262.524 328.000 C 256.692 336.702,239.305 342.690,226.400 340.442 C 217.433 338.880,212.313 337.154,207.000 333.904 C 205.170 332.785,201.786 330.585,201.600 330.395 C 200.930 329.706,196.904 327.200,196.469 327.200 C 196.180 327.200,194.562 328.040,192.872 329.067 C 187.929 332.070,178.428 336.727,175.398 337.632 C 166.586 340.263,158.137 341.325,153.200 340.424 C 134.275 336.967,123.742 327.779,120.213 311.650 C 118.628 304.403,119.310 298.826,122.950 289.291 C 123.845 286.946,127.248 280.973,129.303 278.140 C 130.237 276.853,131.499 275.065,132.109 274.166 C 132.718 273.268,133.532 272.188,133.918 271.766 C 134.304 271.345,136.124 269.200,137.963 267.000 C 139.803 264.800,143.279 261.110,145.688 258.800 C 148.097 256.490,152.888 251.750,156.334 248.266 C 173.777 230.634,175.374 229.131,180.264 225.741 C 192.365 217.353,194.717 216.010,198.000 215.611 C 201.302 215.210,205.979 215.599,207.932 216.439 M371.309 224.800 C 371.309 225.790,371.387 226.195,371.482 225.700 C 371.578 225.205,371.578 224.395,371.482 223.900 C 371.387 223.405,371.309 223.810,371.309 224.800 M354.000 276.085 C 354.000 276.527,355.104 276.479,355.385 276.024 C 355.513 275.818,355.253 275.676,354.809 275.709 C 354.364 275.743,354.000 275.912,354.000 276.085 M332.877 317.226 C 332.611 317.652,332.553 318.000,332.748 318.000 C 333.297 318.000,334.081 316.897,333.699 316.661 C 333.513 316.546,333.143 316.800,332.877 317.226 M142.800 375.600 C 142.800 375.820,143.059 376.000,143.376 376.000 C 143.693 376.000,144.064 375.820,144.200 375.600 C 144.336 375.380,144.077 375.200,143.624 375.200 C 143.171 375.200,142.800 375.380,142.800 375.600 " stroke="none" fill="#fcd8df" fill-rule="evenodd"></path><path id="path4" d="M95.813 26.779 C 95.402 27.444,96.413 28.547,96.946 28.014 C 97.239 27.721,97.174 27.402,96.730 26.959 C 96.279 26.508,96.013 26.456,95.813 26.779 M145.418 33.180 C 144.724 33.946,144.732 33.986,145.662 34.410 C 147.022 35.029,149.217 34.232,148.369 33.426 C 147.323 32.433,146.181 32.337,145.418 33.180 M123.700 36.500 C 123.791 36.775,124.199 37.064,124.605 37.143 C 125.283 37.275,125.291 37.234,124.700 36.643 C 123.932 35.875,123.470 35.808,123.700 36.500 M174.479 75.499 C 174.094 75.633,174.146 75.818,174.674 76.205 C 175.392 76.730,176.000 76.645,176.000 76.019 C 176.000 75.573,175.126 75.274,174.479 75.499 M212.000 91.400 C 211.592 91.891,211.620 92.000,212.151 92.000 C 212.508 92.000,212.800 91.730,212.800 91.400 C 212.800 91.070,212.732 90.800,212.649 90.800 C 212.566 90.800,212.274 91.070,212.000 91.400 M346.627 164.430 C 347.478 165.370,347.556 165.380,347.431 164.533 C 347.378 164.167,347.018 163.820,346.632 163.764 C 345.965 163.666,345.965 163.699,346.627 164.430 " stroke="none" fill="#9c9c9c" fill-rule="evenodd"></path></g></svg>